solid OpenSCAD_Model
  facet normal -1 0 0
    outer loop
      vertex 0 0 0
      vertex 0 310 40
      vertex 0 310 0
    endloop
  endfacet
  facet normal -1 -0 0
    outer loop
      vertex 0 310 40
      vertex 0 0 0
      vertex 0 0 40
    endloop
  endfacet
  facet normal -0 0 1
    outer loop
      vertex 235 220 40
      vertex 310 90 40
      vertex 310 220 40
    endloop
  endfacet
  facet normal 0 0 1
    outer loop
      vertex 310 90 40
      vertex 235 220 40
      vertex 235 90 40
    endloop
  endfacet
  facet normal 0 0 1
    outer loop
      vertex 400 310 40
      vertex 340 250 40
      vertex 400 0 40
    endloop
  endfacet
  facet normal 0 0 1
    outer loop
      vertex 400 310 40
      vertex 240 305 40
      vertex 340 250 40
    endloop
  endfacet
  facet normal 0 0 1
    outer loop
      vertex 400 310 40
      vertex 160 305 40
      vertex 240 305 40
    endloop
  endfacet
  facet normal 0 0 1
    outer loop
      vertex 160 305 40
      vertex 95 250 40
      vertex 160 250 40
    endloop
  endfacet
  facet normal 0 0 1
    outer loop
      vertex 95 250 40
      vertex 90 250 40
      vertex 95 220 40
    endloop
  endfacet
  facet normal 0 0 1
    outer loop
      vertex 160 305 40
      vertex 90 250 40
      vertex 95 250 40
    endloop
  endfacet
  facet normal 0 0 1
    outer loop
      vertex 0 310 40
      vertex 90 250 40
      vertex 160 305 40
    endloop
  endfacet
  facet normal 0 0 1
    outer loop
      vertex 60 250 40
      vertex 0 310 40
      vertex 60 60 40
    endloop
  endfacet
  facet normal 0 0 1
    outer loop
      vertex 90 250 40
      vertex 0 310 40
      vertex 60 250 40
    endloop
  endfacet
  facet normal -0 0 1
    outer loop
      vertex 0 310 40
      vertex 160 305 40
      vertex 400 310 40
    endloop
  endfacet
  facet normal -0 0 1
    outer loop
      vertex 340 60 40
      vertex 400 0 40
      vertex 340 250 40
    endloop
  endfacet
  facet normal -0 0 1
    outer loop
      vertex 60 60 40
      vertex 400 0 40
      vertex 340 60 40
    endloop
  endfacet
  facet normal 0 0 1
    outer loop
      vertex 60 60 40
      vertex 0 0 40
      vertex 400 0 40
    endloop
  endfacet
  facet normal 0 0 1
    outer loop
      vertex 0 0 40
      vertex 60 60 40
      vertex 0 310 40
    endloop
  endfacet
  facet normal 0 0 1
    outer loop
      vertex 340 250 40
      vertex 240 305 40
      vertex 240 250 40
    endloop
  endfacet
  facet normal -0 0 1
    outer loop
      vertex 95 220 40
      vertex 165 90 40
      vertex 165 220 40
    endloop
  endfacet
  facet normal 0 0 1
    outer loop
      vertex 95 220 40
      vertex 90 90 40
      vertex 165 90 40
    endloop
  endfacet
  facet normal 0 0 1
    outer loop
      vertex 90 90 40
      vertex 95 220 40
      vertex 90 250 40
    endloop
  endfacet
  facet normal 1 -0 0
    outer loop
      vertex 400 0 40
      vertex 400 310 0
      vertex 400 310 40
    endloop
  endfacet
  facet normal 1 0 0
    outer loop
      vertex 400 310 0
      vertex 400 0 40
      vertex 400 0 0
    endloop
  endfacet
  facet normal 0 1 -0
    outer loop
      vertex 400 310 0
      vertex 0 310 40
      vertex 400 310 40
    endloop
  endfacet
  facet normal 0 1 0
    outer loop
      vertex 0 310 40
      vertex 400 310 0
      vertex 0 310 0
    endloop
  endfacet
  facet normal 0 0 -1
    outer loop
      vertex 400 0 0
      vertex 235 89 0
      vertex 400 310 0
    endloop
  endfacet
  facet normal 0 0 -1
    outer loop
      vertex 400 0 0
      vertex 165 89 0
      vertex 235 89 0
    endloop
  endfacet
  facet normal -0 0 -1
    outer loop
      vertex 165 89 0
      vertex 0 0 0
      vertex 165 221 0
    endloop
  endfacet
  facet normal 0 0 -1
    outer loop
      vertex 0 0 0
      vertex 165 89 0
      vertex 400 0 0
    endloop
  endfacet
  facet normal 0 0 -1
    outer loop
      vertex 235 221 0
      vertex 400 310 0
      vertex 235 89 0
    endloop
  endfacet
  facet normal 0 0 -1
    outer loop
      vertex 165 221 0
      vertex 400 310 0
      vertex 235 221 0
    endloop
  endfacet
  facet normal 0 0 -1
    outer loop
      vertex 165 221 0
      vertex 0 310 0
      vertex 400 310 0
    endloop
  endfacet
  facet normal 0 0 -1
    outer loop
      vertex 0 310 0
      vertex 165 221 0
      vertex 0 0 0
    endloop
  endfacet
  facet normal 0 -1 0
    outer loop
      vertex 0 0 0
      vertex 400 0 40
      vertex 0 0 40
    endloop
  endfacet
  facet normal 0 -1 -0
    outer loop
      vertex 400 0 40
      vertex 0 0 0
      vertex 400 0 0
    endloop
  endfacet
  facet normal 1 0 0
    outer loop
      vertex 60 250 40
      vertex 60 225 37.5
      vertex 60 250 37.5
    endloop
  endfacet
  facet normal 1 0 0
    outer loop
      vertex 60 225 37.5
      vertex 60 203 29
      vertex 60 225 2.5
    endloop
  endfacet
  facet normal 1 0 0
    outer loop
      vertex 60 225 37.5
      vertex 60 190 29
      vertex 60 203 29
    endloop
  endfacet
  facet normal 1 0 0
    outer loop
      vertex 60 190 29
      vertex 60 173 29
      vertex 60 190 2.5
    endloop
  endfacet
  facet normal 1 0 0
    outer loop
      vertex 60 225 37.5
      vertex 60 173 29
      vertex 60 190 29
    endloop
  endfacet
  facet normal 1 0 0
    outer loop
      vertex 60 225 37.5
      vertex 60 160 29
      vertex 60 173 29
    endloop
  endfacet
  facet normal 1 0 0
    outer loop
      vertex 60 160 29
      vertex 60 113 29
      vertex 60 160 2.5
    endloop
  endfacet
  facet normal 1 0 0
    outer loop
      vertex 60 60 40
      vertex 60 160 29
      vertex 60 225 37.5
    endloop
  endfacet
  facet normal 1 -0 0
    outer loop
      vertex 60 60 40
      vertex 60 225 37.5
      vertex 60 250 40
    endloop
  endfacet
  facet normal 1 0 0
    outer loop
      vertex 60 160 29
      vertex 60 60 40
      vertex 60 113 29
    endloop
  endfacet
  facet normal 1 0 0
    outer loop
      vertex 60 100 29
      vertex 60 83 29
      vertex 60 100 2.5
    endloop
  endfacet
  facet normal 1 0 0
    outer loop
      vertex 60 113 29
      vertex 60 60 40
      vertex 60 100 29
    endloop
  endfacet
  facet normal 1 0 0
    outer loop
      vertex 60 100 29
      vertex 60 60 40
      vertex 60 83 29
    endloop
  endfacet
  facet normal 1 0 0
    outer loop
      vertex 60 83 29
      vertex 60 60 40
      vertex 60 70 29
    endloop
  endfacet
  facet normal 1 0 0
    outer loop
      vertex 60 60 2.5
      vertex 60 70 29
      vertex 60 60 40
    endloop
  endfacet
  facet normal 1 0 0
    outer loop
      vertex 60 70 29
      vertex 60 60 2.5
      vertex 60 70 2.5
    endloop
  endfacet
  facet normal 1 0 0
    outer loop
      vertex 60 225 2.5
      vertex 60 203 29
      vertex 60 203 2.5
    endloop
  endfacet
  facet normal 1 0 0
    outer loop
      vertex 60 190 2.5
      vertex 60 173 29
      vertex 60 173 2.5
    endloop
  endfacet
  facet normal 1 0 0
    outer loop
      vertex 60 160 2.5
      vertex 60 113 29
      vertex 60 113 2.5
    endloop
  endfacet
  facet normal 1 0 0
    outer loop
      vertex 60 100 2.5
      vertex 60 83 29
      vertex 60 83 2.5
    endloop
  endfacet
  facet normal -1 0 0
    outer loop
      vertex 340 70 2.5
      vertex 340 60 2.5
      vertex 340 70 29
    endloop
  endfacet
  facet normal -1 0 0
    outer loop
      vertex 340 100 2.5
      vertex 340 83 2.5
      vertex 340 100 29
    endloop
  endfacet
  facet normal -1 0 0
    outer loop
      vertex 340 150 2.5
      vertex 340 113 2.5
      vertex 340 150 29
    endloop
  endfacet
  facet normal -1 0 0
    outer loop
      vertex 340 175 2.5
      vertex 340 163 2.5
      vertex 340 175 29
    endloop
  endfacet
  facet normal -1 0 0
    outer loop
      vertex 340 228 2.5
      vertex 340 188 2.5
      vertex 340 228 29
    endloop
  endfacet
  facet normal -1 0 0
    outer loop
      vertex 340 241 29
      vertex 340 250 2.5
      vertex 340 241 2.5
    endloop
  endfacet
  facet normal -1 0 0
    outer loop
      vertex 340 250 2.5
      vertex 340 241 29
      vertex 340 250 40
    endloop
  endfacet
  facet normal -1 0 0
    outer loop
      vertex 340 228 29
      vertex 340 250 40
      vertex 340 241 29
    endloop
  endfacet
  facet normal -1 0 0
    outer loop
      vertex 340 188 29
      vertex 340 228 29
      vertex 340 188 2.5
    endloop
  endfacet
  facet normal -1 0 0
    outer loop
      vertex 340 188 29
      vertex 340 250 40
      vertex 340 228 29
    endloop
  endfacet
  facet normal -1 0 0
    outer loop
      vertex 340 175 29
      vertex 340 250 40
      vertex 340 188 29
    endloop
  endfacet
  facet normal -1 0 0
    outer loop
      vertex 340 163 29
      vertex 340 175 29
      vertex 340 163 2.5
    endloop
  endfacet
  facet normal -1 0 0
    outer loop
      vertex 340 163 29
      vertex 340 250 40
      vertex 340 175 29
    endloop
  endfacet
  facet normal -1 0 0
    outer loop
      vertex 340 150 29
      vertex 340 250 40
      vertex 340 163 29
    endloop
  endfacet
  facet normal -1 0 0
    outer loop
      vertex 340 113 29
      vertex 340 150 29
      vertex 340 113 2.5
    endloop
  endfacet
  facet normal -1 0 0
    outer loop
      vertex 340 60 40
      vertex 340 150 29
      vertex 340 113 29
    endloop
  endfacet
  facet normal -1 0 0
    outer loop
      vertex 340 60 40
      vertex 340 113 29
      vertex 340 100 29
    endloop
  endfacet
  facet normal -1 0 0
    outer loop
      vertex 340 83 29
      vertex 340 100 29
      vertex 340 83 2.5
    endloop
  endfacet
  facet normal -1 0 0
    outer loop
      vertex 340 60 40
      vertex 340 100 29
      vertex 340 83 29
    endloop
  endfacet
  facet normal -1 0 0
    outer loop
      vertex 340 60 40
      vertex 340 83 29
      vertex 340 70 29
    endloop
  endfacet
  facet normal -1 0 0
    outer loop
      vertex 340 150 29
      vertex 340 60 40
      vertex 340 250 40
    endloop
  endfacet
  facet normal -1 0 0
    outer loop
      vertex 340 60 40
      vertex 340 70 29
      vertex 340 60 2.5
    endloop
  endfacet
  facet normal -0 0 1
    outer loop
      vertex 60 100 2.5
      vertex 60.5 83 2.5
      vertex 60.5 100 2.5
    endloop
  endfacet
  facet normal 0 0 1
    outer loop
      vertex 60.5 83 2.5
      vertex 60 100 2.5
      vertex 60 83 2.5
    endloop
  endfacet
  facet normal -0 0 1
    outer loop
      vertex 60 160 2.5
      vertex 60.5 113 2.5
      vertex 60.5 160 2.5
    endloop
  endfacet
  facet normal 0 0 1
    outer loop
      vertex 60.5 113 2.5
      vertex 60 160 2.5
      vertex 60 113 2.5
    endloop
  endfacet
  facet normal -0 0 1
    outer loop
      vertex 60 190 2.5
      vertex 60.5 173 2.5
      vertex 60.5 190 2.5
    endloop
  endfacet
  facet normal 0 0 1
    outer loop
      vertex 60.5 173 2.5
      vertex 60 190 2.5
      vertex 60 173 2.5
    endloop
  endfacet
  facet normal -0 0 1
    outer loop
      vertex 89.5 202 2.5
      vertex 90 158 2.5
      vertex 90 202 2.5
    endloop
  endfacet
  facet normal 0 0 1
    outer loop
      vertex 90 158 2.5
      vertex 89.5 202 2.5
      vertex 89.5 158 2.5
    endloop
  endfacet
  facet normal 0 0 1
    outer loop
      vertex 60.5 203 2.5
      vertex 60 225 2.5
      vertex 60 203 2.5
    endloop
  endfacet
  facet normal -0 0 1
    outer loop
      vertex 30.5 228 2.5
      vertex 60 225 2.5
      vertex 30.5 241 2.5
    endloop
  endfacet
  facet normal 0 0 1
    outer loop
      vertex 30 225 2.5
      vertex 30.5 228 2.5
      vertex 30 228 2.5
    endloop
  endfacet
  facet normal 0 0 1
    outer loop
      vertex 30.5 228 2.5
      vertex 30 225 2.5
      vertex 60 225 2.5
    endloop
  endfacet
  facet normal 0 0 1
    outer loop
      vertex 90 145 2.5
      vertex 89.5 145 2.5
      vertex 90 90 2.5
    endloop
  endfacet
  facet normal 0 0 1
    outer loop
      vertex 116 250 2.5
      vertex 90 220 2.5
      vertex 116 249.5 2.5
    endloop
  endfacet
  facet normal 0 0 1
    outer loop
      vertex 90 220 2.5
      vertex 89.5 215 2.5
      vertex 90 215 2.5
    endloop
  endfacet
  facet normal -0 0 1
    outer loop
      vertex 60.5 203 2.5
      vertex 89.5 202 2.5
      vertex 89.5 215 2.5
    endloop
  endfacet
  facet normal 0 0 1
    outer loop
      vertex 60.5 173 2.5
      vertex 89.5 202 2.5
      vertex 60.5 190 2.5
    endloop
  endfacet
  facet normal 0 0 1
    outer loop
      vertex 89.5 202 2.5
      vertex 60.5 203 2.5
      vertex 60.5 190 2.5
    endloop
  endfacet
  facet normal 0 0 1
    outer loop
      vertex 60 225 2.5
      vertex 89.5 215 2.5
      vertex 90 220 2.5
    endloop
  endfacet
  facet normal -0 0 1
    outer loop
      vertex 60 225 2.5
      vertex 90 220 2.5
      vertex 116 250 2.5
    endloop
  endfacet
  facet normal 0 0 1
    outer loop
      vertex 89.5 215 2.5
      vertex 60 225 2.5
      vertex 60.5 203 2.5
    endloop
  endfacet
  facet normal -0 0 1
    outer loop
      vertex 30 250 2.5
      vertex 60 225 2.5
      vertex 116 250 2.5
    endloop
  endfacet
  facet normal 0 0 1
    outer loop
      vertex 60 225 2.5
      vertex 30 250 2.5
      vertex 30.5 241 2.5
    endloop
  endfacet
  facet normal 0 0 1
    outer loop
      vertex 30.5 241 2.5
      vertex 30 250 2.5
      vertex 30 241 2.5
    endloop
  endfacet
  facet normal -0 0 1
    outer loop
      vertex 130 275 2.5
      vertex 130.5 274.5 2.5
      vertex 130.5 275 2.5
    endloop
  endfacet
  facet normal 0 0 1
    outer loop
      vertex 130.5 274.5 2.5
      vertex 130 275 2.5
      vertex 130 274.5 2.5
    endloop
  endfacet
  facet normal 0 0 1
    outer loop
      vertex 130 60.5 2.5
      vertex 165 89 2.5
      vertex 165 90 2.5
    endloop
  endfacet
  facet normal 0 0 1
    outer loop
      vertex 165 89 2.5
      vertex 130 60.5 2.5
      vertex 143 60.5 2.5
    endloop
  endfacet
  facet normal 0 0 1
    outer loop
      vertex 130 60.5 2.5
      vertex 108 60.5 2.5
      vertex 130 60 2.5
    endloop
  endfacet
  facet normal -0 0 1
    outer loop
      vertex 90 90 2.5
      vertex 130 60.5 2.5
      vertex 165 90 2.5
    endloop
  endfacet
  facet normal 0 0 1
    outer loop
      vertex 130 60.5 2.5
      vertex 90 90 2.5
      vertex 108 60.5 2.5
    endloop
  endfacet
  facet normal 0 0 1
    outer loop
      vertex 108 60.5 2.5
      vertex 90 90 2.5
      vertex 95 60.5 2.5
    endloop
  endfacet
  facet normal -0 0 1
    outer loop
      vertex 60.5 70 2.5
      vertex 95 60.5 2.5
      vertex 90 90 2.5
    endloop
  endfacet
  facet normal 0 0 1
    outer loop
      vertex 89.5 202 2.5
      vertex 60.5 173 2.5
      vertex 89.5 158 2.5
    endloop
  endfacet
  facet normal -0 0 1
    outer loop
      vertex 60.5 160 2.5
      vertex 89.5 158 2.5
      vertex 60.5 173 2.5
    endloop
  endfacet
  facet normal 0 0 1
    outer loop
      vertex 89.5 158 2.5
      vertex 60.5 160 2.5
      vertex 89.5 145 2.5
    endloop
  endfacet
  facet normal 0 0 1
    outer loop
      vertex 60.5 113 2.5
      vertex 89.5 145 2.5
      vertex 60.5 160 2.5
    endloop
  endfacet
  facet normal 0 0 1
    outer loop
      vertex 89.5 145 2.5
      vertex 60.5 113 2.5
      vertex 90 90 2.5
    endloop
  endfacet
  facet normal -0 0 1
    outer loop
      vertex 60.5 100 2.5
      vertex 90 90 2.5
      vertex 60.5 113 2.5
    endloop
  endfacet
  facet normal 0 0 1
    outer loop
      vertex 60.5 83 2.5
      vertex 90 90 2.5
      vertex 60.5 100 2.5
    endloop
  endfacet
  facet normal 0 0 1
    outer loop
      vertex 60.5 70 2.5
      vertex 90 90 2.5
      vertex 60.5 83 2.5
    endloop
  endfacet
  facet normal 0 0 1
    outer loop
      vertex 60 60 2.5
      vertex 95 60.5 2.5
      vertex 60.5 70 2.5
    endloop
  endfacet
  facet normal 0 0 1
    outer loop
      vertex 60 60 2.5
      vertex 60.5 70 2.5
      vertex 60 70 2.5
    endloop
  endfacet
  facet normal 0 0 1
    outer loop
      vertex 95 60.5 2.5
      vertex 60 60 2.5
      vertex 95 60 2.5
    endloop
  endfacet
  facet normal 0 0 1
    outer loop
      vertex 235 89 2.5
      vertex 195 60.5 2.5
      vertex 208 60.5 2.5
    endloop
  endfacet
  facet normal -0 0 1
    outer loop
      vertex 165 89 2.5
      vertex 195 60.5 2.5
      vertex 235 89 2.5
    endloop
  endfacet
  facet normal 0 0 1
    outer loop
      vertex 143 60.5 2.5
      vertex 195 60.5 2.5
      vertex 165 89 2.5
    endloop
  endfacet
  facet normal 0 0 1
    outer loop
      vertex 195 60.5 2.5
      vertex 143 60.5 2.5
      vertex 195 60 2.5
    endloop
  endfacet
  facet normal 0 0 1
    outer loop
      vertex 195 60 2.5
      vertex 143 60.5 2.5
      vertex 143 60 2.5
    endloop
  endfacet
  facet normal 0 0 1
    outer loop
      vertex 160 290 2.5
      vertex 240 290 2.5
      vertex 240 305 2.5
    endloop
  endfacet
  facet normal 0 0 1
    outer loop
      vertex 240 290 2.5
      vertex 160 260 2.5
      vertex 235 221 2.5
    endloop
  endfacet
  facet normal 0 0 1
    outer loop
      vertex 160 290 2.5
      vertex 240 305 2.5
      vertex 160 305 2.5
    endloop
  endfacet
  facet normal 0 0 1
    outer loop
      vertex 240 290 2.5
      vertex 160 290 2.5
      vertex 160 260 2.5
    endloop
  endfacet
  facet normal 0 0 1
    outer loop
      vertex 235 221 2.5
      vertex 160 260 2.5
      vertex 160 250 2.5
    endloop
  endfacet
  facet normal 0 0 1
    outer loop
      vertex 235 221 2.5
      vertex 160 250 2.5
      vertex 165 221 2.5
    endloop
  endfacet
  facet normal -0 0 1
    outer loop
      vertex 129 249.5 2.5
      vertex 165 221 2.5
      vertex 160 250 2.5
    endloop
  endfacet
  facet normal 0 0 1
    outer loop
      vertex 129 249.5 2.5
      vertex 160 250 2.5
      vertex 129 250 2.5
    endloop
  endfacet
  facet normal 0 0 1
    outer loop
      vertex 165 221 2.5
      vertex 129 249.5 2.5
      vertex 165 220 2.5
    endloop
  endfacet
  facet normal 0 0 1
    outer loop
      vertex 90 220 2.5
      vertex 129 249.5 2.5
      vertex 116 249.5 2.5
    endloop
  endfacet
  facet normal 0 0 1
    outer loop
      vertex 129 249.5 2.5
      vertex 90 220 2.5
      vertex 165 220 2.5
    endloop
  endfacet
  facet normal 0 0 1
    outer loop
      vertex 260 290 2.5
      vertex 259.5 288 2.5
      vertex 260 288 2.5
    endloop
  endfacet
  facet normal 0 0 1
    outer loop
      vertex 259.5 288 2.5
      vertex 240 290 2.5
      vertex 259.5 275 2.5
    endloop
  endfacet
  facet normal -0 0 1
    outer loop
      vertex 240 290 2.5
      vertex 259.5 288 2.5
      vertex 260 290 2.5
    endloop
  endfacet
  facet normal 0 0 1
    outer loop
      vertex 260 275 2.5
      vertex 259.5 275 2.5
      vertex 260 250 2.5
    endloop
  endfacet
  facet normal 0 0 1
    outer loop
      vertex 339.5 113 2.5
      vertex 310 90 2.5
      vertex 339.5 100 2.5
    endloop
  endfacet
  facet normal 0 0 1
    outer loop
      vertex 339.5 100 2.5
      vertex 310 90 2.5
      vertex 310.5 60.5 2.5
    endloop
  endfacet
  facet normal 0 0 1
    outer loop
      vertex 310 90 2.5
      vertex 297.5 60.5 2.5
      vertex 310.5 60.5 2.5
    endloop
  endfacet
  facet normal 0 0 1
    outer loop
      vertex 297.5 60.5 2.5
      vertex 278 60.5 2.5
      vertex 297.5 60 2.5
    endloop
  endfacet
  facet normal 0 0 1
    outer loop
      vertex 310 90 2.5
      vertex 278 60.5 2.5
      vertex 297.5 60.5 2.5
    endloop
  endfacet
  facet normal -0 0 1
    outer loop
      vertex 235 90 2.5
      vertex 278 60.5 2.5
      vertex 310 90 2.5
    endloop
  endfacet
  facet normal 0 0 1
    outer loop
      vertex 278 60.5 2.5
      vertex 235 90 2.5
      vertex 265 60.5 2.5
    endloop
  endfacet
  facet normal -0 0 1
    outer loop
      vertex 235 89 2.5
      vertex 265 60.5 2.5
      vertex 235 90 2.5
    endloop
  endfacet
  facet normal 0 0 1
    outer loop
      vertex 208 60.5 2.5
      vertex 265 60.5 2.5
      vertex 235 89 2.5
    endloop
  endfacet
  facet normal 0 0 1
    outer loop
      vertex 265 60.5 2.5
      vertex 208 60.5 2.5
      vertex 265 60 2.5
    endloop
  endfacet
  facet normal 0 0 1
    outer loop
      vertex 265 60 2.5
      vertex 208 60.5 2.5
      vertex 208 60 2.5
    endloop
  endfacet
  facet normal -0 0 1
    outer loop
      vertex 310 170 2.5
      vertex 310.5 158 2.5
      vertex 310.5 170 2.5
    endloop
  endfacet
  facet normal 0 0 1
    outer loop
      vertex 310.5 158 2.5
      vertex 310 170 2.5
      vertex 310 158 2.5
    endloop
  endfacet
  facet normal -0 0 1
    outer loop
      vertex 310 202 2.5
      vertex 310.5 183 2.5
      vertex 310.5 202 2.5
    endloop
  endfacet
  facet normal 0 0 1
    outer loop
      vertex 310.5 183 2.5
      vertex 310 202 2.5
      vertex 310 183 2.5
    endloop
  endfacet
  facet normal -0 0 1
    outer loop
      vertex 260 250 2.5
      vertex 325 249.5 2.5
      vertex 325 250 2.5
    endloop
  endfacet
  facet normal 0 0 1
    outer loop
      vertex 325 249.5 2.5
      vertex 310 220 2.5
      vertex 310.5 215 2.5
    endloop
  endfacet
  facet normal 0 0 1
    outer loop
      vertex 325 249.5 2.5
      vertex 260 250 2.5
      vertex 310 220 2.5
    endloop
  endfacet
  facet normal 0 0 1
    outer loop
      vertex 240 290 2.5
      vertex 260 250 2.5
      vertex 259.5 275 2.5
    endloop
  endfacet
  facet normal 0 0 1
    outer loop
      vertex 235 221 2.5
      vertex 260 250 2.5
      vertex 240 290 2.5
    endloop
  endfacet
  facet normal 0 0 1
    outer loop
      vertex 235 220 2.5
      vertex 260 250 2.5
      vertex 235 221 2.5
    endloop
  endfacet
  facet normal 0 0 1
    outer loop
      vertex 260 250 2.5
      vertex 235 220 2.5
      vertex 310 220 2.5
    endloop
  endfacet
  facet normal -0 0 1
    outer loop
      vertex 338 249.5 2.5
      vertex 340 241 2.5
      vertex 340 250 2.5
    endloop
  endfacet
  facet normal 0 0 1
    outer loop
      vertex 325 249.5 2.5
      vertex 339.5 228 2.5
      vertex 339.5 241 2.5
    endloop
  endfacet
  facet normal 0 0 1
    outer loop
      vertex 310.5 202 2.5
      vertex 339.5 228 2.5
      vertex 310.5 215 2.5
    endloop
  endfacet
  facet normal 0 0 1
    outer loop
      vertex 310.5 183 2.5
      vertex 339.5 188 2.5
      vertex 310.5 202 2.5
    endloop
  endfacet
  facet normal 0 0 1
    outer loop
      vertex 339.5 188 2.5
      vertex 310.5 183 2.5
      vertex 339.5 175 2.5
    endloop
  endfacet
  facet normal 0 0 1
    outer loop
      vertex 310.5 170 2.5
      vertex 339.5 175 2.5
      vertex 310.5 183 2.5
    endloop
  endfacet
  facet normal 0 0 1
    outer loop
      vertex 339.5 163 2.5
      vertex 310.5 158 2.5
      vertex 339.5 150 2.5
    endloop
  endfacet
  facet normal 0 0 1
    outer loop
      vertex 310.5 145 2.5
      vertex 339.5 150 2.5
      vertex 310.5 158 2.5
    endloop
  endfacet
  facet normal 0 0 1
    outer loop
      vertex 310 90 2.5
      vertex 310.5 145 2.5
      vertex 310 145 2.5
    endloop
  endfacet
  facet normal 0 0 1
    outer loop
      vertex 340 241 2.5
      vertex 338 249.5 2.5
      vertex 339.5 241 2.5
    endloop
  endfacet
  facet normal 0 0 1
    outer loop
      vertex 338 249.5 2.5
      vertex 340 250 2.5
      vertex 338 250 2.5
    endloop
  endfacet
  facet normal -0 0 1
    outer loop
      vertex 339.5 228 2.5
      vertex 340 188 2.5
      vertex 340 228 2.5
    endloop
  endfacet
  facet normal 0 0 1
    outer loop
      vertex 340 188 2.5
      vertex 339.5 228 2.5
      vertex 339.5 188 2.5
    endloop
  endfacet
  facet normal -0 0 1
    outer loop
      vertex 339.5 175 2.5
      vertex 340 163 2.5
      vertex 340 175 2.5
    endloop
  endfacet
  facet normal 0 0 1
    outer loop
      vertex 340 163 2.5
      vertex 339.5 175 2.5
      vertex 339.5 163 2.5
    endloop
  endfacet
  facet normal -0 0 1
    outer loop
      vertex 339.5 150 2.5
      vertex 340 113 2.5
      vertex 340 150 2.5
    endloop
  endfacet
  facet normal 0 0 1
    outer loop
      vertex 340 113 2.5
      vertex 339.5 150 2.5
      vertex 339.5 113 2.5
    endloop
  endfacet
  facet normal -0 0 1
    outer loop
      vertex 339.5 100 2.5
      vertex 340 83 2.5
      vertex 340 100 2.5
    endloop
  endfacet
  facet normal 0 0 1
    outer loop
      vertex 340 83 2.5
      vertex 339.5 100 2.5
      vertex 339.5 83 2.5
    endloop
  endfacet
  facet normal -0 0 1
    outer loop
      vertex 339.5 70 2.5
      vertex 340 60 2.5
      vertex 340 70 2.5
    endloop
  endfacet
  facet normal -0 0 1
    outer loop
      vertex 325 249.5 2.5
      vertex 339.5 241 2.5
      vertex 338 249.5 2.5
    endloop
  endfacet
  facet normal 0 0 1
    outer loop
      vertex 339.5 228 2.5
      vertex 325 249.5 2.5
      vertex 310.5 215 2.5
    endloop
  endfacet
  facet normal 0 0 1
    outer loop
      vertex 339.5 150 2.5
      vertex 310.5 145 2.5
      vertex 339.5 113 2.5
    endloop
  endfacet
  facet normal 0 0 1
    outer loop
      vertex 339.5 228 2.5
      vertex 310.5 202 2.5
      vertex 339.5 188 2.5
    endloop
  endfacet
  facet normal 0 0 1
    outer loop
      vertex 339.5 175 2.5
      vertex 310.5 170 2.5
      vertex 339.5 163 2.5
    endloop
  endfacet
  facet normal 0 0 1
    outer loop
      vertex 310.5 158 2.5
      vertex 339.5 163 2.5
      vertex 310.5 170 2.5
    endloop
  endfacet
  facet normal 0 0 1
    outer loop
      vertex 310.5 145 2.5
      vertex 310 90 2.5
      vertex 339.5 113 2.5
    endloop
  endfacet
  facet normal 0 0 1
    outer loop
      vertex 339.5 100 2.5
      vertex 310.5 60.5 2.5
      vertex 339.5 83 2.5
    endloop
  endfacet
  facet normal 0 0 1
    outer loop
      vertex 339.5 83 2.5
      vertex 310.5 60.5 2.5
      vertex 339.5 70 2.5
    endloop
  endfacet
  facet normal 0 0 1
    outer loop
      vertex 339.5 70 2.5
      vertex 310.5 60.5 2.5
      vertex 340 60 2.5
    endloop
  endfacet
  facet normal 0 0 1
    outer loop
      vertex 340 60 2.5
      vertex 310.5 60.5 2.5
      vertex 310.5 60 2.5
    endloop
  endfacet
  facet normal 0 0 1
    outer loop
      vertex 310.5 215 2.5
      vertex 310 220 2.5
      vertex 310 215 2.5
    endloop
  endfacet
  facet normal 0 0 1
    outer loop
      vertex 297.5 60 2.5
      vertex 278 60.5 2.5
      vertex 278 60 2.5
    endloop
  endfacet
  facet normal 0 0 1
    outer loop
      vertex 130.5 275 2.5
      vertex 160 290 2.5
      vertex 130.5 288 2.5
    endloop
  endfacet
  facet normal -0 0 1
    outer loop
      vertex 130 290 2.5
      vertex 130.5 288 2.5
      vertex 160 290 2.5
    endloop
  endfacet
  facet normal 0 0 1
    outer loop
      vertex 130.5 288 2.5
      vertex 130 290 2.5
      vertex 130 288 2.5
    endloop
  endfacet
  facet normal 0 0 1
    outer loop
      vertex 160 290 2.5
      vertex 130.5 275 2.5
      vertex 160 260 2.5
    endloop
  endfacet
  facet normal -0 0 1
    outer loop
      vertex 130.5 274.5 2.5
      vertex 160 260 2.5
      vertex 130.5 275 2.5
    endloop
  endfacet
  facet normal -0 0 1
    outer loop
      vertex 130.5 261.5 2.5
      vertex 160 260 2.5
      vertex 130.5 274.5 2.5
    endloop
  endfacet
  facet normal 0 0 1
    outer loop
      vertex 130 260 2.5
      vertex 130.5 261.5 2.5
      vertex 130 261.5 2.5
    endloop
  endfacet
  facet normal 0 0 1
    outer loop
      vertex 130.5 261.5 2.5
      vertex 130 260 2.5
      vertex 160 260 2.5
    endloop
  endfacet
  facet normal 0 0 1
    outer loop
      vertex 130 60 2.5
      vertex 108 60.5 2.5
      vertex 108 60 2.5
    endloop
  endfacet
  facet normal 0 1 -0
    outer loop
      vertex 130 60 2.5
      vertex 108 60 29
      vertex 130 60 29
    endloop
  endfacet
  facet normal 0 1 0
    outer loop
      vertex 108 60 29
      vertex 130 60 2.5
      vertex 108 60 2.5
    endloop
  endfacet
  facet normal 0 1 -0
    outer loop
      vertex 195 60 2.5
      vertex 143 60 29
      vertex 195 60 29
    endloop
  endfacet
  facet normal 0 1 0
    outer loop
      vertex 143 60 29
      vertex 195 60 2.5
      vertex 143 60 2.5
    endloop
  endfacet
  facet normal 0 1 -0
    outer loop
      vertex 265 60 2.5
      vertex 208 60 29
      vertex 265 60 29
    endloop
  endfacet
  facet normal 0 1 0
    outer loop
      vertex 208 60 29
      vertex 265 60 2.5
      vertex 208 60 2.5
    endloop
  endfacet
  facet normal 0 1 -0
    outer loop
      vertex 297.5 60 2.5
      vertex 278 60 29
      vertex 297.5 60 29
    endloop
  endfacet
  facet normal 0 1 0
    outer loop
      vertex 278 60 29
      vertex 297.5 60 2.5
      vertex 278 60 2.5
    endloop
  endfacet
  facet normal 0 1 0
    outer loop
      vertex 297.5 60 29
      vertex 340 60 40
      vertex 310.5 60 29
    endloop
  endfacet
  facet normal 0 1 -0
    outer loop
      vertex 340 60 2.5
      vertex 310.5 60 29
      vertex 340 60 40
    endloop
  endfacet
  facet normal 0 1 0
    outer loop
      vertex 310.5 60 29
      vertex 340 60 2.5
      vertex 310.5 60 2.5
    endloop
  endfacet
  facet normal 0 1 0
    outer loop
      vertex 278 60 29
      vertex 340 60 40
      vertex 297.5 60 29
    endloop
  endfacet
  facet normal 0 1 0
    outer loop
      vertex 265 60 29
      vertex 340 60 40
      vertex 278 60 29
    endloop
  endfacet
  facet normal 0 1 0
    outer loop
      vertex 208 60 29
      vertex 340 60 40
      vertex 265 60 29
    endloop
  endfacet
  facet normal 0 1 0
    outer loop
      vertex 340 60 40
      vertex 208 60 29
      vertex 60 60 40
    endloop
  endfacet
  facet normal 0 1 -0
    outer loop
      vertex 195 60 29
      vertex 60 60 40
      vertex 208 60 29
    endloop
  endfacet
  facet normal 0 1 -0
    outer loop
      vertex 143 60 29
      vertex 60 60 40
      vertex 195 60 29
    endloop
  endfacet
  facet normal 0 1 -0
    outer loop
      vertex 130 60 29
      vertex 60 60 40
      vertex 143 60 29
    endloop
  endfacet
  facet normal 0 1 -0
    outer loop
      vertex 108 60 29
      vertex 60 60 40
      vertex 130 60 29
    endloop
  endfacet
  facet normal 0 1 -0
    outer loop
      vertex 95 60 29
      vertex 60 60 40
      vertex 108 60 29
    endloop
  endfacet
  facet normal 0 1 0
    outer loop
      vertex 60 60 2.5
      vertex 95 60 29
      vertex 95 60 2.5
    endloop
  endfacet
  facet normal 0 1 0
    outer loop
      vertex 95 60 29
      vertex 60 60 2.5
      vertex 60 60 40
    endloop
  endfacet
  facet normal 0 -1 0
    outer loop
      vertex 260 250 2.5
      vertex 325 250 29
      vertex 260 250 37.5
    endloop
  endfacet
  facet normal 0 -1 -0
    outer loop
      vertex 325 250 29
      vertex 260 250 2.5
      vertex 325 250 2.5
    endloop
  endfacet
  facet normal 0 -1 0
    outer loop
      vertex 260 250 37.5
      vertex 240 250 40
      vertex 240 250 37.5
    endloop
  endfacet
  facet normal 0 -1 0
    outer loop
      vertex 240 250 40
      vertex 260 250 37.5
      vertex 340 250 40
    endloop
  endfacet
  facet normal 0 -1 0
    outer loop
      vertex 325 250 29
      vertex 340 250 40
      vertex 260 250 37.5
    endloop
  endfacet
  facet normal 0 -1 0
    outer loop
      vertex 338 250 29
      vertex 340 250 40
      vertex 325 250 29
    endloop
  endfacet
  facet normal 0 -1 0
    outer loop
      vertex 340 250 2.5
      vertex 338 250 29
      vertex 338 250 2.5
    endloop
  endfacet
  facet normal 0 -1 0
    outer loop
      vertex 338 250 29
      vertex 340 250 2.5
      vertex 340 250 40
    endloop
  endfacet
  facet normal 0 -1 0
    outer loop
      vertex 30 250 2.5
      vertex 60 250 37.5
      vertex 30 250 37.5
    endloop
  endfacet
  facet normal 0 -1 0
    outer loop
      vertex 116 250 2.5
      vertex 95 250 36
      vertex 90 250 36
    endloop
  endfacet
  facet normal 0 -1 -0
    outer loop
      vertex 60 250 37.5
      vertex 30 250 2.5
      vertex 90 250 36
    endloop
  endfacet
  facet normal 0 -1 0
    outer loop
      vertex 116 250 2.5
      vertex 90 250 36
      vertex 30 250 2.5
    endloop
  endfacet
  facet normal 0 -1 0
    outer loop
      vertex 95 250 36
      vertex 116 250 2.5
      vertex 116 250 29
    endloop
  endfacet
  facet normal 0 -1 0
    outer loop
      vertex 60 250 37.5
      vertex 90 250 40
      vertex 60 250 40
    endloop
  endfacet
  facet normal 0 -1 -0
    outer loop
      vertex 90 250 40
      vertex 60 250 37.5
      vertex 90 250 36
    endloop
  endfacet
  facet normal 0 -1 0
    outer loop
      vertex 116 250 29
      vertex 95 250 40
      vertex 95 250 36
    endloop
  endfacet
  facet normal 0 -1 0
    outer loop
      vertex 95 250 40
      vertex 116 250 29
      vertex 129 250 29
    endloop
  endfacet
  facet normal 0 -1 0
    outer loop
      vertex 95 250 40
      vertex 129 250 29
      vertex 160 250 40
    endloop
  endfacet
  facet normal 0 -1 0
    outer loop
      vertex 160 250 2.5
      vertex 129 250 29
      vertex 129 250 2.5
    endloop
  endfacet
  facet normal 0 -1 0
    outer loop
      vertex 129 250 29
      vertex 160 250 2.5
      vertex 160 250 40
    endloop
  endfacet
  facet normal 1 0 0
    outer loop
      vertex 160 305 40
      vertex 160 290 37.5
      vertex 160 305 2.5
    endloop
  endfacet
  facet normal 1 -0 0
    outer loop
      vertex 160 250 40
      vertex 160 290 37.5
      vertex 160 305 40
    endloop
  endfacet
  facet normal 1 0 0
    outer loop
      vertex 160 290 37.5
      vertex 160 250 40
      vertex 160 260 37.5
    endloop
  endfacet
  facet normal 1 0 0
    outer loop
      vertex 160 250 2.5
      vertex 160 260 37.5
      vertex 160 250 40
    endloop
  endfacet
  facet normal 1 0 0
    outer loop
      vertex 160 260 37.5
      vertex 160 250 2.5
      vertex 160 260 2.5
    endloop
  endfacet
  facet normal 1 0 0
    outer loop
      vertex 160 305 2.5
      vertex 160 290 37.5
      vertex 160 290 2.5
    endloop
  endfacet
  facet normal -1 0 0
    outer loop
      vertex 240 290 37.5
      vertex 240 305 2.5
      vertex 240 290 2.5
    endloop
  endfacet
  facet normal -1 0 0
    outer loop
      vertex 240 305 2.5
      vertex 240 290 37.5
      vertex 240 305 40
    endloop
  endfacet
  facet normal -1 0 0
    outer loop
      vertex 240 250 40
      vertex 240 290 37.5
      vertex 240 250 37.5
    endloop
  endfacet
  facet normal -1 0 0
    outer loop
      vertex 240 290 37.5
      vertex 240 250 40
      vertex 240 305 40
    endloop
  endfacet
  facet normal 0 -1 0
    outer loop
      vertex 160 305 2.5
      vertex 240 305 40
      vertex 160 305 40
    endloop
  endfacet
  facet normal 0 -1 -0
    outer loop
      vertex 240 305 40
      vertex 160 305 2.5
      vertex 240 305 2.5
    endloop
  endfacet
  facet normal 0 0 -1
    outer loop
      vertex 240 250 37.5
      vertex 260 290 37.5
      vertex 260 250 37.5
    endloop
  endfacet
  facet normal -0 0 -1
    outer loop
      vertex 260 290 37.5
      vertex 240 250 37.5
      vertex 240 290 37.5
    endloop
  endfacet
  facet normal -1 0 0
    outer loop
      vertex 260 275 2.5
      vertex 260 250 2.5
      vertex 260 275 29
    endloop
  endfacet
  facet normal -1 0 0
    outer loop
      vertex 260 288 29
      vertex 260 290 2.5
      vertex 260 288 2.5
    endloop
  endfacet
  facet normal -1 0 0
    outer loop
      vertex 260 290 2.5
      vertex 260 288 29
      vertex 260 290 37.5
    endloop
  endfacet
  facet normal -1 0 0
    outer loop
      vertex 260 275 29
      vertex 260 290 37.5
      vertex 260 288 29
    endloop
  endfacet
  facet normal -1 0 0
    outer loop
      vertex 260 275 29
      vertex 260 250 37.5
      vertex 260 290 37.5
    endloop
  endfacet
  facet normal -1 0 0
    outer loop
      vertex 260 250 37.5
      vertex 260 275 29
      vertex 260 250 2.5
    endloop
  endfacet
  facet normal 0 -1 0
    outer loop
      vertex 240 290 2.5
      vertex 260 290 37.5
      vertex 240 290 37.5
    endloop
  endfacet
  facet normal 0 -1 -0
    outer loop
      vertex 260 290 37.5
      vertex 240 290 2.5
      vertex 260 290 2.5
    endloop
  endfacet
  facet normal 1 0 0
    outer loop
      vertex 130 290 37.5
      vertex 130 288 29
      vertex 130 290 2.5
    endloop
  endfacet
  facet normal 1 0 0
    outer loop
      vertex 130 290 37.5
      vertex 130 275 29
      vertex 130 288 29
    endloop
  endfacet
  facet normal 1 0 0
    outer loop
      vertex 130 275 29
      vertex 130 274.5 29
      vertex 130 275 2.5
    endloop
  endfacet
  facet normal 1 -0 0
    outer loop
      vertex 130 260 37.5
      vertex 130 275 29
      vertex 130 290 37.5
    endloop
  endfacet
  facet normal 1 0 0
    outer loop
      vertex 130 275 29
      vertex 130 260 37.5
      vertex 130 274.5 29
    endloop
  endfacet
  facet normal 1 0 0
    outer loop
      vertex 130 274.5 29
      vertex 130 260 37.5
      vertex 130 261.5 29
    endloop
  endfacet
  facet normal 1 0 0
    outer loop
      vertex 130 260 2.5
      vertex 130 261.5 29
      vertex 130 260 37.5
    endloop
  endfacet
  facet normal 1 0 0
    outer loop
      vertex 130 261.5 29
      vertex 130 260 2.5
      vertex 130 261.5 2.5
    endloop
  endfacet
  facet normal 1 0 0
    outer loop
      vertex 130 290 2.5
      vertex 130 288 29
      vertex 130 288 2.5
    endloop
  endfacet
  facet normal 1 0 0
    outer loop
      vertex 130 275 2.5
      vertex 130 274.5 29
      vertex 130 274.5 2.5
    endloop
  endfacet
  facet normal 0 0 -1
    outer loop
      vertex 130 260 37.5
      vertex 160 290 37.5
      vertex 160 260 37.5
    endloop
  endfacet
  facet normal -0 0 -1
    outer loop
      vertex 160 290 37.5
      vertex 130 260 37.5
      vertex 130 290 37.5
    endloop
  endfacet
  facet normal 0 -1 0
    outer loop
      vertex 130 290 2.5
      vertex 160 290 37.5
      vertex 130 290 37.5
    endloop
  endfacet
  facet normal 0 -1 -0
    outer loop
      vertex 160 290 37.5
      vertex 130 290 2.5
      vertex 160 290 2.5
    endloop
  endfacet
  facet normal 0 1 -0
    outer loop
      vertex 160 260 2.5
      vertex 130 260 37.5
      vertex 160 260 37.5
    endloop
  endfacet
  facet normal 0 1 0
    outer loop
      vertex 130 260 37.5
      vertex 160 260 2.5
      vertex 130 260 2.5
    endloop
  endfacet
  facet normal 1 0 0
    outer loop
      vertex 30 250 37.5
      vertex 30 241 29
      vertex 30 250 2.5
    endloop
  endfacet
  facet normal 1 -0 0
    outer loop
      vertex 30 225 37.5
      vertex 30 241 29
      vertex 30 250 37.5
    endloop
  endfacet
  facet normal 1 0 0
    outer loop
      vertex 30 241 29
      vertex 30 225 37.5
      vertex 30 228 29
    endloop
  endfacet
  facet normal 1 0 0
    outer loop
      vertex 30 225 2.5
      vertex 30 228 29
      vertex 30 225 37.5
    endloop
  endfacet
  facet normal 1 0 0
    outer loop
      vertex 30 228 29
      vertex 30 225 2.5
      vertex 30 228 2.5
    endloop
  endfacet
  facet normal 1 0 0
    outer loop
      vertex 30 250 2.5
      vertex 30 241 29
      vertex 30 241 2.5
    endloop
  endfacet
  facet normal 0 0 -1
    outer loop
      vertex 30 225 37.5
      vertex 60 250 37.5
      vertex 60 225 37.5
    endloop
  endfacet
  facet normal -0 0 -1
    outer loop
      vertex 60 250 37.5
      vertex 30 225 37.5
      vertex 30 250 37.5
    endloop
  endfacet
  facet normal 0 1 -0
    outer loop
      vertex 60 225 2.5
      vertex 30 225 37.5
      vertex 60 225 37.5
    endloop
  endfacet
  facet normal 0 1 0
    outer loop
      vertex 30 225 37.5
      vertex 60 225 2.5
      vertex 30 225 2.5
    endloop
  endfacet
  facet normal -1 0 0
    outer loop
      vertex 90 145 2.5
      vertex 90 90 2.5
      vertex 90 145 29
    endloop
  endfacet
  facet normal -1 0 0
    outer loop
      vertex 90 202 2.5
      vertex 90 158 2.5
      vertex 90 202 29
    endloop
  endfacet
  facet normal -1 0 0
    outer loop
      vertex 90 215 29
      vertex 90 220 2.5
      vertex 90 215 2.5
    endloop
  endfacet
  facet normal -1 0 0
    outer loop
      vertex 90 220 36
      vertex 90 250 40
      vertex 90 250 36
    endloop
  endfacet
  facet normal -1 0 0
    outer loop
      vertex 90 220 2.5
      vertex 90 215 29
      vertex 90 220 36
    endloop
  endfacet
  facet normal -1 0 0
    outer loop
      vertex 90 202 29
      vertex 90 220 36
      vertex 90 215 29
    endloop
  endfacet
  facet normal -1 0 0
    outer loop
      vertex 90 158 29
      vertex 90 202 29
      vertex 90 158 2.5
    endloop
  endfacet
  facet normal -1 0 0
    outer loop
      vertex 90 158 29
      vertex 90 220 36
      vertex 90 202 29
    endloop
  endfacet
  facet normal -1 0 0
    outer loop
      vertex 90 90 40
      vertex 90 220 36
      vertex 90 158 29
    endloop
  endfacet
  facet normal -1 0 0
    outer loop
      vertex 90 90 40
      vertex 90 158 29
      vertex 90 145 29
    endloop
  endfacet
  facet normal -1 0 0
    outer loop
      vertex 90 220 36
      vertex 90 90 40
      vertex 90 250 40
    endloop
  endfacet
  facet normal -1 0 0
    outer loop
      vertex 90 90 40
      vertex 90 145 29
      vertex 90 90 2.5
    endloop
  endfacet
  facet normal 1 0 0
    outer loop
      vertex 310 220 40
      vertex 310 215 29
      vertex 310 220 2.5
    endloop
  endfacet
  facet normal 1 0 0
    outer loop
      vertex 310 220 40
      vertex 310 202 29
      vertex 310 215 29
    endloop
  endfacet
  facet normal 1 0 0
    outer loop
      vertex 310 202 29
      vertex 310 183 29
      vertex 310 202 2.5
    endloop
  endfacet
  facet normal 1 0 0
    outer loop
      vertex 310 220 40
      vertex 310 183 29
      vertex 310 202 29
    endloop
  endfacet
  facet normal 1 0 0
    outer loop
      vertex 310 220 40
      vertex 310 170 29
      vertex 310 183 29
    endloop
  endfacet
  facet normal 1 0 0
    outer loop
      vertex 310 170 29
      vertex 310 158 29
      vertex 310 170 2.5
    endloop
  endfacet
  facet normal 1 0 0
    outer loop
      vertex 310 220 40
      vertex 310 158 29
      vertex 310 170 29
    endloop
  endfacet
  facet normal 1 -0 0
    outer loop
      vertex 310 90 40
      vertex 310 158 29
      vertex 310 220 40
    endloop
  endfacet
  facet normal 1 0 0
    outer loop
      vertex 310 158 29
      vertex 310 90 40
      vertex 310 145 29
    endloop
  endfacet
  facet normal 1 0 0
    outer loop
      vertex 310 90 2.5
      vertex 310 145 29
      vertex 310 90 40
    endloop
  endfacet
  facet normal 1 0 0
    outer loop
      vertex 310 145 29
      vertex 310 90 2.5
      vertex 310 145 2.5
    endloop
  endfacet
  facet normal 1 0 0
    outer loop
      vertex 310 220 2.5
      vertex 310 215 29
      vertex 310 215 2.5
    endloop
  endfacet
  facet normal 1 0 0
    outer loop
      vertex 310 202 2.5
      vertex 310 183 29
      vertex 310 183 2.5
    endloop
  endfacet
  facet normal 1 0 0
    outer loop
      vertex 310 170 2.5
      vertex 310 158 29
      vertex 310 158 2.5
    endloop
  endfacet
  facet normal 0 -1 0
    outer loop
      vertex 235 90 2.5
      vertex 310 90 40
      vertex 235 90 40
    endloop
  endfacet
  facet normal 0 -1 -0
    outer loop
      vertex 310 90 40
      vertex 235 90 2.5
      vertex 310 90 2.5
    endloop
  endfacet
  facet normal 0 -1 0
    outer loop
      vertex 90 90 2.5
      vertex 165 90 40
      vertex 90 90 40
    endloop
  endfacet
  facet normal 0 -1 -0
    outer loop
      vertex 165 90 40
      vertex 90 90 2.5
      vertex 165 90 2.5
    endloop
  endfacet
  facet normal 0 1 -0
    outer loop
      vertex 310 220 2.5
      vertex 235 220 40
      vertex 310 220 40
    endloop
  endfacet
  facet normal 0 1 0
    outer loop
      vertex 235 220 40
      vertex 310 220 2.5
      vertex 235 220 2.5
    endloop
  endfacet
  facet normal 0 1 0
    outer loop
      vertex 165 220 40
      vertex 95 220 36
      vertex 95 220 40
    endloop
  endfacet
  facet normal 0 1 -0
    outer loop
      vertex 165 220 2.5
      vertex 95 220 36
      vertex 165 220 40
    endloop
  endfacet
  facet normal 0 1 0
    outer loop
      vertex 90 220 2.5
      vertex 95 220 36
      vertex 165 220 2.5
    endloop
  endfacet
  facet normal 0 1 0
    outer loop
      vertex 95 220 36
      vertex 90 220 2.5
      vertex 90 220 36
    endloop
  endfacet
  facet normal -1 0 0
    outer loop
      vertex 325 249.5 2.5
      vertex 325 250 29
      vertex 325 250 2.5
    endloop
  endfacet
  facet normal -1 -0 0
    outer loop
      vertex 325 250 29
      vertex 325 249.5 2.5
      vertex 325 249.5 29
    endloop
  endfacet
  facet normal -0 0 1
    outer loop
      vertex 325 250 29
      vertex 338 249.5 29
      vertex 338 250 29
    endloop
  endfacet
  facet normal 0 0 1
    outer loop
      vertex 338 249.5 29
      vertex 325 250 29
      vertex 325 249.5 29
    endloop
  endfacet
  facet normal 1 -0 0
    outer loop
      vertex 338 249.5 29
      vertex 338 250 2.5
      vertex 338 250 29
    endloop
  endfacet
  facet normal 1 0 0
    outer loop
      vertex 338 250 2.5
      vertex 338 249.5 29
      vertex 338 249.5 2.5
    endloop
  endfacet
  facet normal 0 -1 0
    outer loop
      vertex 325 249.5 2.5
      vertex 338 249.5 29
      vertex 325 249.5 29
    endloop
  endfacet
  facet normal 0 -1 -0
    outer loop
      vertex 338 249.5 29
      vertex 325 249.5 2.5
      vertex 338 249.5 2.5
    endloop
  endfacet
  facet normal -1 0 0
    outer loop
      vertex 339.5 228 2.5
      vertex 339.5 241 29
      vertex 339.5 241 2.5
    endloop
  endfacet
  facet normal -1 -0 0
    outer loop
      vertex 339.5 241 29
      vertex 339.5 228 2.5
      vertex 339.5 228 29
    endloop
  endfacet
  facet normal -0 0 1
    outer loop
      vertex 339.5 241 29
      vertex 340 228 29
      vertex 340 241 29
    endloop
  endfacet
  facet normal 0 0 1
    outer loop
      vertex 340 228 29
      vertex 339.5 241 29
      vertex 339.5 228 29
    endloop
  endfacet
  facet normal 0 1 -0
    outer loop
      vertex 340 241 2.5
      vertex 339.5 241 29
      vertex 340 241 29
    endloop
  endfacet
  facet normal 0 1 0
    outer loop
      vertex 339.5 241 29
      vertex 340 241 2.5
      vertex 339.5 241 2.5
    endloop
  endfacet
  facet normal 0 -1 0
    outer loop
      vertex 339.5 228 2.5
      vertex 340 228 29
      vertex 339.5 228 29
    endloop
  endfacet
  facet normal 0 -1 -0
    outer loop
      vertex 340 228 29
      vertex 339.5 228 2.5
      vertex 340 228 2.5
    endloop
  endfacet
  facet normal -1 0 0
    outer loop
      vertex 339.5 150 2.5
      vertex 339.5 163 29
      vertex 339.5 163 2.5
    endloop
  endfacet
  facet normal -1 -0 0
    outer loop
      vertex 339.5 163 29
      vertex 339.5 150 2.5
      vertex 339.5 150 29
    endloop
  endfacet
  facet normal -0 0 1
    outer loop
      vertex 339.5 163 29
      vertex 340 150 29
      vertex 340 163 29
    endloop
  endfacet
  facet normal 0 0 1
    outer loop
      vertex 340 150 29
      vertex 339.5 163 29
      vertex 339.5 150 29
    endloop
  endfacet
  facet normal 0 1 -0
    outer loop
      vertex 340 163 2.5
      vertex 339.5 163 29
      vertex 340 163 29
    endloop
  endfacet
  facet normal 0 1 0
    outer loop
      vertex 339.5 163 29
      vertex 340 163 2.5
      vertex 339.5 163 2.5
    endloop
  endfacet
  facet normal 0 -1 0
    outer loop
      vertex 339.5 150 2.5
      vertex 340 150 29
      vertex 339.5 150 29
    endloop
  endfacet
  facet normal 0 -1 -0
    outer loop
      vertex 340 150 29
      vertex 339.5 150 2.5
      vertex 340 150 2.5
    endloop
  endfacet
  facet normal -1 0 0
    outer loop
      vertex 339.5 175 2.5
      vertex 339.5 188 29
      vertex 339.5 188 2.5
    endloop
  endfacet
  facet normal -1 -0 0
    outer loop
      vertex 339.5 188 29
      vertex 339.5 175 2.5
      vertex 339.5 175 29
    endloop
  endfacet
  facet normal -0 0 1
    outer loop
      vertex 339.5 188 29
      vertex 340 175 29
      vertex 340 188 29
    endloop
  endfacet
  facet normal 0 0 1
    outer loop
      vertex 340 175 29
      vertex 339.5 188 29
      vertex 339.5 175 29
    endloop
  endfacet
  facet normal 0 1 -0
    outer loop
      vertex 340 188 2.5
      vertex 339.5 188 29
      vertex 340 188 29
    endloop
  endfacet
  facet normal 0 1 0
    outer loop
      vertex 339.5 188 29
      vertex 340 188 2.5
      vertex 339.5 188 2.5
    endloop
  endfacet
  facet normal 0 -1 0
    outer loop
      vertex 339.5 175 2.5
      vertex 340 175 29
      vertex 339.5 175 29
    endloop
  endfacet
  facet normal 0 -1 -0
    outer loop
      vertex 340 175 29
      vertex 339.5 175 2.5
      vertex 340 175 2.5
    endloop
  endfacet
  facet normal -1 0 0
    outer loop
      vertex 339.5 100 2.5
      vertex 339.5 113 29
      vertex 339.5 113 2.5
    endloop
  endfacet
  facet normal -1 -0 0
    outer loop
      vertex 339.5 113 29
      vertex 339.5 100 2.5
      vertex 339.5 100 29
    endloop
  endfacet
  facet normal -0 0 1
    outer loop
      vertex 339.5 113 29
      vertex 340 100 29
      vertex 340 113 29
    endloop
  endfacet
  facet normal 0 0 1
    outer loop
      vertex 340 100 29
      vertex 339.5 113 29
      vertex 339.5 100 29
    endloop
  endfacet
  facet normal 0 1 -0
    outer loop
      vertex 340 113 2.5
      vertex 339.5 113 29
      vertex 340 113 29
    endloop
  endfacet
  facet normal 0 1 0
    outer loop
      vertex 339.5 113 29
      vertex 340 113 2.5
      vertex 339.5 113 2.5
    endloop
  endfacet
  facet normal 0 -1 0
    outer loop
      vertex 339.5 100 2.5
      vertex 340 100 29
      vertex 339.5 100 29
    endloop
  endfacet
  facet normal 0 -1 -0
    outer loop
      vertex 340 100 29
      vertex 339.5 100 2.5
      vertex 340 100 2.5
    endloop
  endfacet
  facet normal -1 0 0
    outer loop
      vertex 339.5 70 2.5
      vertex 339.5 83 29
      vertex 339.5 83 2.5
    endloop
  endfacet
  facet normal -1 -0 0
    outer loop
      vertex 339.5 83 29
      vertex 339.5 70 2.5
      vertex 339.5 70 29
    endloop
  endfacet
  facet normal -0 0 1
    outer loop
      vertex 339.5 83 29
      vertex 340 70 29
      vertex 340 83 29
    endloop
  endfacet
  facet normal 0 0 1
    outer loop
      vertex 340 70 29
      vertex 339.5 83 29
      vertex 339.5 70 29
    endloop
  endfacet
  facet normal 0 -1 0
    outer loop
      vertex 339.5 70 2.5
      vertex 340 70 29
      vertex 339.5 70 29
    endloop
  endfacet
  facet normal 0 -1 -0
    outer loop
      vertex 340 70 29
      vertex 339.5 70 2.5
      vertex 340 70 2.5
    endloop
  endfacet
  facet normal 0 1 -0
    outer loop
      vertex 340 83 2.5
      vertex 339.5 83 29
      vertex 340 83 29
    endloop
  endfacet
  facet normal 0 1 0
    outer loop
      vertex 339.5 83 29
      vertex 340 83 2.5
      vertex 339.5 83 2.5
    endloop
  endfacet
  facet normal -0 0 1
    outer loop
      vertex 310 215 29
      vertex 310.5 202 29
      vertex 310.5 215 29
    endloop
  endfacet
  facet normal 0 0 1
    outer loop
      vertex 310.5 202 29
      vertex 310 215 29
      vertex 310 202 29
    endloop
  endfacet
  facet normal 1 -0 0
    outer loop
      vertex 310.5 202 29
      vertex 310.5 215 2.5
      vertex 310.5 215 29
    endloop
  endfacet
  facet normal 1 0 0
    outer loop
      vertex 310.5 215 2.5
      vertex 310.5 202 29
      vertex 310.5 202 2.5
    endloop
  endfacet
  facet normal 0 1 -0
    outer loop
      vertex 310.5 215 2.5
      vertex 310 215 29
      vertex 310.5 215 29
    endloop
  endfacet
  facet normal 0 1 0
    outer loop
      vertex 310 215 29
      vertex 310.5 215 2.5
      vertex 310 215 2.5
    endloop
  endfacet
  facet normal 0 -1 0
    outer loop
      vertex 310 202 2.5
      vertex 310.5 202 29
      vertex 310 202 29
    endloop
  endfacet
  facet normal 0 -1 -0
    outer loop
      vertex 310.5 202 29
      vertex 310 202 2.5
      vertex 310.5 202 2.5
    endloop
  endfacet
  facet normal -0 0 1
    outer loop
      vertex 310 183 29
      vertex 310.5 170 29
      vertex 310.5 183 29
    endloop
  endfacet
  facet normal 0 0 1
    outer loop
      vertex 310.5 170 29
      vertex 310 183 29
      vertex 310 170 29
    endloop
  endfacet
  facet normal 1 -0 0
    outer loop
      vertex 310.5 170 29
      vertex 310.5 183 2.5
      vertex 310.5 183 29
    endloop
  endfacet
  facet normal 1 0 0
    outer loop
      vertex 310.5 183 2.5
      vertex 310.5 170 29
      vertex 310.5 170 2.5
    endloop
  endfacet
  facet normal 0 -1 0
    outer loop
      vertex 310 170 2.5
      vertex 310.5 170 29
      vertex 310 170 29
    endloop
  endfacet
  facet normal 0 -1 -0
    outer loop
      vertex 310.5 170 29
      vertex 310 170 2.5
      vertex 310.5 170 2.5
    endloop
  endfacet
  facet normal 0 1 -0
    outer loop
      vertex 310.5 183 2.5
      vertex 310 183 29
      vertex 310.5 183 29
    endloop
  endfacet
  facet normal 0 1 0
    outer loop
      vertex 310 183 29
      vertex 310.5 183 2.5
      vertex 310 183 2.5
    endloop
  endfacet
  facet normal -0 0 1
    outer loop
      vertex 310 158 29
      vertex 310.5 145 29
      vertex 310.5 158 29
    endloop
  endfacet
  facet normal 0 0 1
    outer loop
      vertex 310.5 145 29
      vertex 310 158 29
      vertex 310 145 29
    endloop
  endfacet
  facet normal 1 -0 0
    outer loop
      vertex 310.5 145 29
      vertex 310.5 158 2.5
      vertex 310.5 158 29
    endloop
  endfacet
  facet normal 1 0 0
    outer loop
      vertex 310.5 158 2.5
      vertex 310.5 145 29
      vertex 310.5 145 2.5
    endloop
  endfacet
  facet normal 0 -1 0
    outer loop
      vertex 310 145 2.5
      vertex 310.5 145 29
      vertex 310 145 29
    endloop
  endfacet
  facet normal 0 -1 -0
    outer loop
      vertex 310.5 145 29
      vertex 310 145 2.5
      vertex 310.5 145 2.5
    endloop
  endfacet
  facet normal 0 1 -0
    outer loop
      vertex 310.5 158 2.5
      vertex 310 158 29
      vertex 310.5 158 29
    endloop
  endfacet
  facet normal 0 1 0
    outer loop
      vertex 310 158 29
      vertex 310.5 158 2.5
      vertex 310 158 2.5
    endloop
  endfacet
  facet normal -1 0 0
    outer loop
      vertex 297.5 60 2.5
      vertex 297.5 60.5 29
      vertex 297.5 60.5 2.5
    endloop
  endfacet
  facet normal -1 -0 0
    outer loop
      vertex 297.5 60.5 29
      vertex 297.5 60 2.5
      vertex 297.5 60 29
    endloop
  endfacet
  facet normal -0 0 1
    outer loop
      vertex 297.5 60.5 29
      vertex 310.5 60 29
      vertex 310.5 60.5 29
    endloop
  endfacet
  facet normal 0 0 1
    outer loop
      vertex 310.5 60 29
      vertex 297.5 60.5 29
      vertex 297.5 60 29
    endloop
  endfacet
  facet normal 1 -0 0
    outer loop
      vertex 310.5 60 29
      vertex 310.5 60.5 2.5
      vertex 310.5 60.5 29
    endloop
  endfacet
  facet normal 1 0 0
    outer loop
      vertex 310.5 60.5 2.5
      vertex 310.5 60 29
      vertex 310.5 60 2.5
    endloop
  endfacet
  facet normal 0 1 -0
    outer loop
      vertex 310.5 60.5 2.5
      vertex 297.5 60.5 29
      vertex 310.5 60.5 29
    endloop
  endfacet
  facet normal 0 1 0
    outer loop
      vertex 297.5 60.5 29
      vertex 310.5 60.5 2.5
      vertex 297.5 60.5 2.5
    endloop
  endfacet
  facet normal -1 0 0
    outer loop
      vertex 265 60 2.5
      vertex 265 60.5 29
      vertex 265 60.5 2.5
    endloop
  endfacet
  facet normal -1 -0 0
    outer loop
      vertex 265 60.5 29
      vertex 265 60 2.5
      vertex 265 60 29
    endloop
  endfacet
  facet normal -0 0 1
    outer loop
      vertex 265 60.5 29
      vertex 278 60 29
      vertex 278 60.5 29
    endloop
  endfacet
  facet normal 0 0 1
    outer loop
      vertex 278 60 29
      vertex 265 60.5 29
      vertex 265 60 29
    endloop
  endfacet
  facet normal 1 -0 0
    outer loop
      vertex 278 60 29
      vertex 278 60.5 2.5
      vertex 278 60.5 29
    endloop
  endfacet
  facet normal 1 0 0
    outer loop
      vertex 278 60.5 2.5
      vertex 278 60 29
      vertex 278 60 2.5
    endloop
  endfacet
  facet normal 0 1 -0
    outer loop
      vertex 278 60.5 2.5
      vertex 265 60.5 29
      vertex 278 60.5 29
    endloop
  endfacet
  facet normal 0 1 0
    outer loop
      vertex 265 60.5 29
      vertex 278 60.5 2.5
      vertex 265 60.5 2.5
    endloop
  endfacet
  facet normal -1 0 0
    outer loop
      vertex 195 60 2.5
      vertex 195 60.5 29
      vertex 195 60.5 2.5
    endloop
  endfacet
  facet normal -1 -0 0
    outer loop
      vertex 195 60.5 29
      vertex 195 60 2.5
      vertex 195 60 29
    endloop
  endfacet
  facet normal -0 0 1
    outer loop
      vertex 195 60.5 29
      vertex 208 60 29
      vertex 208 60.5 29
    endloop
  endfacet
  facet normal 0 0 1
    outer loop
      vertex 208 60 29
      vertex 195 60.5 29
      vertex 195 60 29
    endloop
  endfacet
  facet normal 1 -0 0
    outer loop
      vertex 208 60 29
      vertex 208 60.5 2.5
      vertex 208 60.5 29
    endloop
  endfacet
  facet normal 1 0 0
    outer loop
      vertex 208 60.5 2.5
      vertex 208 60 29
      vertex 208 60 2.5
    endloop
  endfacet
  facet normal 0 1 -0
    outer loop
      vertex 208 60.5 2.5
      vertex 195 60.5 29
      vertex 208 60.5 29
    endloop
  endfacet
  facet normal 0 1 0
    outer loop
      vertex 195 60.5 29
      vertex 208 60.5 2.5
      vertex 195 60.5 2.5
    endloop
  endfacet
  facet normal -1 0 0
    outer loop
      vertex 130 60 2.5
      vertex 130 60.5 29
      vertex 130 60.5 2.5
    endloop
  endfacet
  facet normal -1 -0 0
    outer loop
      vertex 130 60.5 29
      vertex 130 60 2.5
      vertex 130 60 29
    endloop
  endfacet
  facet normal -0 0 1
    outer loop
      vertex 130 60.5 29
      vertex 143 60 29
      vertex 143 60.5 29
    endloop
  endfacet
  facet normal 0 0 1
    outer loop
      vertex 143 60 29
      vertex 130 60.5 29
      vertex 130 60 29
    endloop
  endfacet
  facet normal 1 -0 0
    outer loop
      vertex 143 60 29
      vertex 143 60.5 2.5
      vertex 143 60.5 29
    endloop
  endfacet
  facet normal 1 0 0
    outer loop
      vertex 143 60.5 2.5
      vertex 143 60 29
      vertex 143 60 2.5
    endloop
  endfacet
  facet normal 0 1 -0
    outer loop
      vertex 143 60.5 2.5
      vertex 130 60.5 29
      vertex 143 60.5 29
    endloop
  endfacet
  facet normal 0 1 0
    outer loop
      vertex 130 60.5 29
      vertex 143 60.5 2.5
      vertex 130 60.5 2.5
    endloop
  endfacet
  facet normal -1 0 0
    outer loop
      vertex 95 60 2.5
      vertex 95 60.5 29
      vertex 95 60.5 2.5
    endloop
  endfacet
  facet normal -1 -0 0
    outer loop
      vertex 95 60.5 29
      vertex 95 60 2.5
      vertex 95 60 29
    endloop
  endfacet
  facet normal -0 0 1
    outer loop
      vertex 95 60.5 29
      vertex 108 60 29
      vertex 108 60.5 29
    endloop
  endfacet
  facet normal 0 0 1
    outer loop
      vertex 108 60 29
      vertex 95 60.5 29
      vertex 95 60 29
    endloop
  endfacet
  facet normal 1 -0 0
    outer loop
      vertex 108 60 29
      vertex 108 60.5 2.5
      vertex 108 60.5 29
    endloop
  endfacet
  facet normal 1 0 0
    outer loop
      vertex 108 60.5 2.5
      vertex 108 60 29
      vertex 108 60 2.5
    endloop
  endfacet
  facet normal 0 1 -0
    outer loop
      vertex 108 60.5 2.5
      vertex 95 60.5 29
      vertex 108 60.5 29
    endloop
  endfacet
  facet normal 0 1 0
    outer loop
      vertex 95 60.5 29
      vertex 108 60.5 2.5
      vertex 95 60.5 2.5
    endloop
  endfacet
  facet normal -0 0 1
    outer loop
      vertex 30 241 29
      vertex 30.5 228 29
      vertex 30.5 241 29
    endloop
  endfacet
  facet normal 0 0 1
    outer loop
      vertex 30.5 228 29
      vertex 30 241 29
      vertex 30 228 29
    endloop
  endfacet
  facet normal 1 -0 0
    outer loop
      vertex 30.5 228 29
      vertex 30.5 241 2.5
      vertex 30.5 241 29
    endloop
  endfacet
  facet normal 1 0 0
    outer loop
      vertex 30.5 241 2.5
      vertex 30.5 228 29
      vertex 30.5 228 2.5
    endloop
  endfacet
  facet normal 0 1 -0
    outer loop
      vertex 30.5 241 2.5
      vertex 30 241 29
      vertex 30.5 241 29
    endloop
  endfacet
  facet normal 0 1 0
    outer loop
      vertex 30 241 29
      vertex 30.5 241 2.5
      vertex 30 241 2.5
    endloop
  endfacet
  facet normal 0 -1 0
    outer loop
      vertex 30 228 2.5
      vertex 30.5 228 29
      vertex 30 228 29
    endloop
  endfacet
  facet normal 0 -1 -0
    outer loop
      vertex 30.5 228 29
      vertex 30 228 2.5
      vertex 30.5 228 2.5
    endloop
  endfacet
  facet normal -0 0 1
    outer loop
      vertex 60 173 29
      vertex 60.5 160 29
      vertex 60.5 173 29
    endloop
  endfacet
  facet normal 0 0 1
    outer loop
      vertex 60.5 160 29
      vertex 60 173 29
      vertex 60 160 29
    endloop
  endfacet
  facet normal 1 -0 0
    outer loop
      vertex 60.5 160 29
      vertex 60.5 173 2.5
      vertex 60.5 173 29
    endloop
  endfacet
  facet normal 1 0 0
    outer loop
      vertex 60.5 173 2.5
      vertex 60.5 160 29
      vertex 60.5 160 2.5
    endloop
  endfacet
  facet normal 0 1 -0
    outer loop
      vertex 60.5 173 2.5
      vertex 60 173 29
      vertex 60.5 173 29
    endloop
  endfacet
  facet normal 0 1 0
    outer loop
      vertex 60 173 29
      vertex 60.5 173 2.5
      vertex 60 173 2.5
    endloop
  endfacet
  facet normal 0 -1 0
    outer loop
      vertex 60 160 2.5
      vertex 60.5 160 29
      vertex 60 160 29
    endloop
  endfacet
  facet normal 0 -1 -0
    outer loop
      vertex 60.5 160 29
      vertex 60 160 2.5
      vertex 60.5 160 2.5
    endloop
  endfacet
  facet normal -0 0 1
    outer loop
      vertex 60 203 29
      vertex 60.5 190 29
      vertex 60.5 203 29
    endloop
  endfacet
  facet normal 0 0 1
    outer loop
      vertex 60.5 190 29
      vertex 60 203 29
      vertex 60 190 29
    endloop
  endfacet
  facet normal 1 -0 0
    outer loop
      vertex 60.5 190 29
      vertex 60.5 203 2.5
      vertex 60.5 203 29
    endloop
  endfacet
  facet normal 1 0 0
    outer loop
      vertex 60.5 203 2.5
      vertex 60.5 190 29
      vertex 60.5 190 2.5
    endloop
  endfacet
  facet normal 0 1 -0
    outer loop
      vertex 60.5 203 2.5
      vertex 60 203 29
      vertex 60.5 203 29
    endloop
  endfacet
  facet normal 0 1 0
    outer loop
      vertex 60 203 29
      vertex 60.5 203 2.5
      vertex 60 203 2.5
    endloop
  endfacet
  facet normal 0 -1 0
    outer loop
      vertex 60 190 2.5
      vertex 60.5 190 29
      vertex 60 190 29
    endloop
  endfacet
  facet normal 0 -1 -0
    outer loop
      vertex 60.5 190 29
      vertex 60 190 2.5
      vertex 60.5 190 2.5
    endloop
  endfacet
  facet normal -0 0 1
    outer loop
      vertex 60 113 29
      vertex 60.5 100 29
      vertex 60.5 113 29
    endloop
  endfacet
  facet normal 0 0 1
    outer loop
      vertex 60.5 100 29
      vertex 60 113 29
      vertex 60 100 29
    endloop
  endfacet
  facet normal 1 -0 0
    outer loop
      vertex 60.5 100 29
      vertex 60.5 113 2.5
      vertex 60.5 113 29
    endloop
  endfacet
  facet normal 1 0 0
    outer loop
      vertex 60.5 113 2.5
      vertex 60.5 100 29
      vertex 60.5 100 2.5
    endloop
  endfacet
  facet normal 0 1 -0
    outer loop
      vertex 60.5 113 2.5
      vertex 60 113 29
      vertex 60.5 113 29
    endloop
  endfacet
  facet normal 0 1 0
    outer loop
      vertex 60 113 29
      vertex 60.5 113 2.5
      vertex 60 113 2.5
    endloop
  endfacet
  facet normal 0 -1 0
    outer loop
      vertex 60 100 2.5
      vertex 60.5 100 29
      vertex 60 100 29
    endloop
  endfacet
  facet normal 0 -1 -0
    outer loop
      vertex 60.5 100 29
      vertex 60 100 2.5
      vertex 60.5 100 2.5
    endloop
  endfacet
  facet normal -0 0 1
    outer loop
      vertex 60 83 29
      vertex 60.5 70 29
      vertex 60.5 83 29
    endloop
  endfacet
  facet normal 0 0 1
    outer loop
      vertex 60.5 70 29
      vertex 60 83 29
      vertex 60 70 29
    endloop
  endfacet
  facet normal 1 -0 0
    outer loop
      vertex 60.5 70 29
      vertex 60.5 83 2.5
      vertex 60.5 83 29
    endloop
  endfacet
  facet normal 1 0 0
    outer loop
      vertex 60.5 83 2.5
      vertex 60.5 70 29
      vertex 60.5 70 2.5
    endloop
  endfacet
  facet normal 0 -1 0
    outer loop
      vertex 60 70 2.5
      vertex 60.5 70 29
      vertex 60 70 29
    endloop
  endfacet
  facet normal 0 -1 -0
    outer loop
      vertex 60.5 70 29
      vertex 60 70 2.5
      vertex 60.5 70 2.5
    endloop
  endfacet
  facet normal 0 1 -0
    outer loop
      vertex 60.5 83 2.5
      vertex 60 83 29
      vertex 60.5 83 29
    endloop
  endfacet
  facet normal 0 1 0
    outer loop
      vertex 60 83 29
      vertex 60.5 83 2.5
      vertex 60 83 2.5
    endloop
  endfacet
  facet normal -1 0 0
    outer loop
      vertex 89.5 202 2.5
      vertex 89.5 215 29
      vertex 89.5 215 2.5
    endloop
  endfacet
  facet normal -1 -0 0
    outer loop
      vertex 89.5 215 29
      vertex 89.5 202 2.5
      vertex 89.5 202 29
    endloop
  endfacet
  facet normal -0 0 1
    outer loop
      vertex 89.5 215 29
      vertex 90 202 29
      vertex 90 215 29
    endloop
  endfacet
  facet normal 0 0 1
    outer loop
      vertex 90 202 29
      vertex 89.5 215 29
      vertex 89.5 202 29
    endloop
  endfacet
  facet normal 0 -1 0
    outer loop
      vertex 89.5 202 2.5
      vertex 90 202 29
      vertex 89.5 202 29
    endloop
  endfacet
  facet normal 0 -1 -0
    outer loop
      vertex 90 202 29
      vertex 89.5 202 2.5
      vertex 90 202 2.5
    endloop
  endfacet
  facet normal 0 1 -0
    outer loop
      vertex 90 215 2.5
      vertex 89.5 215 29
      vertex 90 215 29
    endloop
  endfacet
  facet normal 0 1 0
    outer loop
      vertex 89.5 215 29
      vertex 90 215 2.5
      vertex 89.5 215 2.5
    endloop
  endfacet
  facet normal -1 0 0
    outer loop
      vertex 89.5 145 2.5
      vertex 89.5 158 29
      vertex 89.5 158 2.5
    endloop
  endfacet
  facet normal -1 -0 0
    outer loop
      vertex 89.5 158 29
      vertex 89.5 145 2.5
      vertex 89.5 145 29
    endloop
  endfacet
  facet normal -0 0 1
    outer loop
      vertex 89.5 158 29
      vertex 90 145 29
      vertex 90 158 29
    endloop
  endfacet
  facet normal 0 0 1
    outer loop
      vertex 90 145 29
      vertex 89.5 158 29
      vertex 89.5 145 29
    endloop
  endfacet
  facet normal 0 1 -0
    outer loop
      vertex 90 158 2.5
      vertex 89.5 158 29
      vertex 90 158 29
    endloop
  endfacet
  facet normal 0 1 0
    outer loop
      vertex 89.5 158 29
      vertex 90 158 2.5
      vertex 89.5 158 2.5
    endloop
  endfacet
  facet normal 0 -1 0
    outer loop
      vertex 89.5 145 2.5
      vertex 90 145 29
      vertex 89.5 145 29
    endloop
  endfacet
  facet normal 0 -1 -0
    outer loop
      vertex 90 145 29
      vertex 89.5 145 2.5
      vertex 90 145 2.5
    endloop
  endfacet
  facet normal -1 0 0
    outer loop
      vertex 259.5 275 2.5
      vertex 259.5 288 29
      vertex 259.5 288 2.5
    endloop
  endfacet
  facet normal -1 -0 0
    outer loop
      vertex 259.5 288 29
      vertex 259.5 275 2.5
      vertex 259.5 275 29
    endloop
  endfacet
  facet normal -0 0 1
    outer loop
      vertex 259.5 288 29
      vertex 260 275 29
      vertex 260 288 29
    endloop
  endfacet
  facet normal 0 0 1
    outer loop
      vertex 260 275 29
      vertex 259.5 288 29
      vertex 259.5 275 29
    endloop
  endfacet
  facet normal 0 1 -0
    outer loop
      vertex 260 288 2.5
      vertex 259.5 288 29
      vertex 260 288 29
    endloop
  endfacet
  facet normal 0 1 0
    outer loop
      vertex 259.5 288 29
      vertex 260 288 2.5
      vertex 259.5 288 2.5
    endloop
  endfacet
  facet normal 0 -1 0
    outer loop
      vertex 259.5 275 2.5
      vertex 260 275 29
      vertex 259.5 275 29
    endloop
  endfacet
  facet normal 0 -1 -0
    outer loop
      vertex 260 275 29
      vertex 259.5 275 2.5
      vertex 260 275 2.5
    endloop
  endfacet
  facet normal -1 0 0
    outer loop
      vertex 116 249.5 2.5
      vertex 116 250 29
      vertex 116 250 2.5
    endloop
  endfacet
  facet normal -1 -0 0
    outer loop
      vertex 116 250 29
      vertex 116 249.5 2.5
      vertex 116 249.5 29
    endloop
  endfacet
  facet normal -0 0 1
    outer loop
      vertex 130 274.5 29
      vertex 130.5 261.5 29
      vertex 130.5 274.5 29
    endloop
  endfacet
  facet normal 0 0 1
    outer loop
      vertex 130.5 261.5 29
      vertex 130 274.5 29
      vertex 130 261.5 29
    endloop
  endfacet
  facet normal -0 0 1
    outer loop
      vertex 116 250 29
      vertex 129 249.5 29
      vertex 129 250 29
    endloop
  endfacet
  facet normal 0 0 1
    outer loop
      vertex 129 249.5 29
      vertex 116 250 29
      vertex 116 249.5 29
    endloop
  endfacet
  facet normal 1 -0 0
    outer loop
      vertex 129 249.5 29
      vertex 129 250 2.5
      vertex 129 250 29
    endloop
  endfacet
  facet normal 1 0 0
    outer loop
      vertex 129 250 2.5
      vertex 129 249.5 29
      vertex 129 249.5 2.5
    endloop
  endfacet
  facet normal 0 -1 0
    outer loop
      vertex 116 249.5 2.5
      vertex 129 249.5 29
      vertex 116 249.5 29
    endloop
  endfacet
  facet normal 0 -1 -0
    outer loop
      vertex 129 249.5 29
      vertex 116 249.5 2.5
      vertex 129 249.5 2.5
    endloop
  endfacet
  facet normal 1 -0 0
    outer loop
      vertex 130.5 261.5 29
      vertex 130.5 274.5 2.5
      vertex 130.5 274.5 29
    endloop
  endfacet
  facet normal 1 0 0
    outer loop
      vertex 130.5 274.5 2.5
      vertex 130.5 261.5 29
      vertex 130.5 261.5 2.5
    endloop
  endfacet
  facet normal 0 -1 0
    outer loop
      vertex 130 261.5 2.5
      vertex 130.5 261.5 29
      vertex 130 261.5 29
    endloop
  endfacet
  facet normal 0 -1 -0
    outer loop
      vertex 130.5 261.5 29
      vertex 130 261.5 2.5
      vertex 130.5 261.5 2.5
    endloop
  endfacet
  facet normal 0 1 -0
    outer loop
      vertex 130.5 274.5 2.5
      vertex 130 274.5 29
      vertex 130.5 274.5 29
    endloop
  endfacet
  facet normal 0 1 0
    outer loop
      vertex 130 274.5 29
      vertex 130.5 274.5 2.5
      vertex 130 274.5 2.5
    endloop
  endfacet
  facet normal -0 0 1
    outer loop
      vertex 130 288 29
      vertex 130.5 275 29
      vertex 130.5 288 29
    endloop
  endfacet
  facet normal 0 0 1
    outer loop
      vertex 130.5 275 29
      vertex 130 288 29
      vertex 130 275 29
    endloop
  endfacet
  facet normal 1 -0 0
    outer loop
      vertex 130.5 275 29
      vertex 130.5 288 2.5
      vertex 130.5 288 29
    endloop
  endfacet
  facet normal 1 0 0
    outer loop
      vertex 130.5 288 2.5
      vertex 130.5 275 29
      vertex 130.5 275 2.5
    endloop
  endfacet
  facet normal 0 1 -0
    outer loop
      vertex 130.5 288 2.5
      vertex 130 288 29
      vertex 130.5 288 29
    endloop
  endfacet
  facet normal 0 1 0
    outer loop
      vertex 130 288 29
      vertex 130.5 288 2.5
      vertex 130 288 2.5
    endloop
  endfacet
  facet normal 0 -1 0
    outer loop
      vertex 130 275 2.5
      vertex 130.5 275 29
      vertex 130 275 29
    endloop
  endfacet
  facet normal 0 -1 -0
    outer loop
      vertex 130.5 275 29
      vertex 130 275 2.5
      vertex 130.5 275 2.5
    endloop
  endfacet
  facet normal 1 -0 0
    outer loop
      vertex 95 220 40
      vertex 95 250 36
      vertex 95 250 40
    endloop
  endfacet
  facet normal 1 0 0
    outer loop
      vertex 95 250 36
      vertex 95 220 40
      vertex 95 220 36
    endloop
  endfacet
  facet normal 0 0 -1
    outer loop
      vertex 90 220 36
      vertex 95 250 36
      vertex 95 220 36
    endloop
  endfacet
  facet normal -0 0 -1
    outer loop
      vertex 95 250 36
      vertex 90 220 36
      vertex 90 250 36
    endloop
  endfacet
  facet normal 1 0 0
    outer loop
      vertex 165 220 40
      vertex 165 90 40
      vertex 165 220 2.5
    endloop
  endfacet
  facet normal 1 -0 0
    outer loop
      vertex 165 220 2.5
      vertex 165 221 0
      vertex 165 221 2.5
    endloop
  endfacet
  facet normal 1 0 0
    outer loop
      vertex 165 90 2.5
      vertex 165 220 2.5
      vertex 165 90 40
    endloop
  endfacet
  facet normal 1 0 0
    outer loop
      vertex 165 220 2.5
      vertex 165 90 2.5
      vertex 165 221 0
    endloop
  endfacet
  facet normal 1 0 0
    outer loop
      vertex 165 89 0
      vertex 165 90 2.5
      vertex 165 89 2.5
    endloop
  endfacet
  facet normal 1 0 0
    outer loop
      vertex 165 90 2.5
      vertex 165 89 0
      vertex 165 221 0
    endloop
  endfacet
  facet normal -1 0 0
    outer loop
      vertex 235 221 0
      vertex 235 220 2.5
      vertex 235 221 2.5
    endloop
  endfacet
  facet normal -1 0 0
    outer loop
      vertex 235 220 2.5
      vertex 235 90 2.5
      vertex 235 220 40
    endloop
  endfacet
  facet normal -1 0 0
    outer loop
      vertex 235 221 0
      vertex 235 90 2.5
      vertex 235 220 2.5
    endloop
  endfacet
  facet normal -1 0 0
    outer loop
      vertex 235 89 0
      vertex 235 90 2.5
      vertex 235 221 0
    endloop
  endfacet
  facet normal -1 -0 0
    outer loop
      vertex 235 90 2.5
      vertex 235 89 0
      vertex 235 89 2.5
    endloop
  endfacet
  facet normal -1 -0 0
    outer loop
      vertex 235 220 40
      vertex 235 90 2.5
      vertex 235 90 40
    endloop
  endfacet
  facet normal 0 1 -0
    outer loop
      vertex 235 89 0
      vertex 165 89 2.5
      vertex 235 89 2.5
    endloop
  endfacet
  facet normal 0 1 0
    outer loop
      vertex 165 89 2.5
      vertex 235 89 0
      vertex 165 89 0
    endloop
  endfacet
  facet normal 0 -1 0
    outer loop
      vertex 165 221 0
      vertex 235 221 2.5
      vertex 165 221 2.5
    endloop
  endfacet
  facet normal 0 -1 -0
    outer loop
      vertex 235 221 2.5
      vertex 165 221 0
      vertex 235 221 0
    endloop
  endfacet
endsolid OpenSCAD_Model
