solid OpenSCAD_Model
  facet normal -1 0 0
    outer loop
      vertex 0 0 40
      vertex 0 310 80
      vertex 0 310 40
    endloop
  endfacet
  facet normal -1 -0 0
    outer loop
      vertex 0 310 80
      vertex 0 0 40
      vertex 0 0 80
    endloop
  endfacet
  facet normal 0 0 1
    outer loop
      vertex 400 310 80
      vertex 340 250 80
      vertex 400 0 80
    endloop
  endfacet
  facet normal 0 0 1
    outer loop
      vertex 400 310 80
      vertex 240 304 80
      vertex 340 250 80
    endloop
  endfacet
  facet normal 0 0 1
    outer loop
      vertex 400 310 80
      vertex 160 304 80
      vertex 240 304 80
    endloop
  endfacet
  facet normal 0 0 1
    outer loop
      vertex 160 304 80
      vertex 60 250 80
      vertex 160 250 80
    endloop
  endfacet
  facet normal 0 0 1
    outer loop
      vertex 60 250 80
      vertex 0 310 80
      vertex 60 60 80
    endloop
  endfacet
  facet normal 0 0 1
    outer loop
      vertex 160 304 80
      vertex 0 310 80
      vertex 60 250 80
    endloop
  endfacet
  facet normal -0 0 1
    outer loop
      vertex 0 310 80
      vertex 160 304 80
      vertex 400 310 80
    endloop
  endfacet
  facet normal -0 0 1
    outer loop
      vertex 340 60 80
      vertex 400 0 80
      vertex 340 250 80
    endloop
  endfacet
  facet normal -0 0 1
    outer loop
      vertex 60 60 80
      vertex 400 0 80
      vertex 340 60 80
    endloop
  endfacet
  facet normal 0 0 1
    outer loop
      vertex 60 60 80
      vertex 0 0 80
      vertex 400 0 80
    endloop
  endfacet
  facet normal 0 0 1
    outer loop
      vertex 0 0 80
      vertex 60 60 80
      vertex 0 310 80
    endloop
  endfacet
  facet normal 0 0 1
    outer loop
      vertex 340 250 80
      vertex 240 304 80
      vertex 240 250 80
    endloop
  endfacet
  facet normal 1 -0 0
    outer loop
      vertex 400 0 80
      vertex 400 310 40
      vertex 400 310 80
    endloop
  endfacet
  facet normal 1 0 0
    outer loop
      vertex 400 310 40
      vertex 400 0 80
      vertex 400 0 40
    endloop
  endfacet
  facet normal 0 1 -0
    outer loop
      vertex 400 310 40
      vertex 0 310 80
      vertex 400 310 80
    endloop
  endfacet
  facet normal 0 1 0
    outer loop
      vertex 0 310 80
      vertex 400 310 40
      vertex 0 310 40
    endloop
  endfacet
  facet normal 0 0 -1
    outer loop
      vertex 235 105 40
      vertex 400 310 40
      vertex 400 0 40
    endloop
  endfacet
  facet normal 0 0 -1
    outer loop
      vertex 400 310 40
      vertex 235 105 40
      vertex 235 221 40
    endloop
  endfacet
  facet normal 0 0 -1
    outer loop
      vertex 400 0 40
      vertex 165 105 40
      vertex 235 105 40
    endloop
  endfacet
  facet normal 0 0 -1
    outer loop
      vertex 0 310 40
      vertex 165 221 40
      vertex 165 105 40
    endloop
  endfacet
  facet normal 0 0 -1
    outer loop
      vertex 165 221 40
      vertex 0 310 40
      vertex 160 249 40
    endloop
  endfacet
  facet normal 0 0 -1
    outer loop
      vertex 0 310 40
      vertex 165 105 40
      vertex 0 0 40
    endloop
  endfacet
  facet normal 0 0 -1
    outer loop
      vertex 0 0 40
      vertex 165 105 40
      vertex 400 0 40
    endloop
  endfacet
  facet normal 0 0 -1
    outer loop
      vertex 240 304 40
      vertex 400 310 40
      vertex 240 249 40
    endloop
  endfacet
  facet normal 0 0 -1
    outer loop
      vertex 160 304 40
      vertex 400 310 40
      vertex 240 304 40
    endloop
  endfacet
  facet normal 0 0 -1
    outer loop
      vertex 160 304 40
      vertex 0 310 40
      vertex 400 310 40
    endloop
  endfacet
  facet normal 0 0 -1
    outer loop
      vertex 160 249 40
      vertex 0 310 40
      vertex 160 304 40
    endloop
  endfacet
  facet normal 0 0 -1
    outer loop
      vertex 400 310 40
      vertex 235 221 40
      vertex 240 249 40
    endloop
  endfacet
  facet normal 0 0 -1
    outer loop
      vertex 165 221 40
      vertex 240 249 40
      vertex 235 221 40
    endloop
  endfacet
  facet normal -0 0 -1
    outer loop
      vertex 240 249 40
      vertex 165 221 40
      vertex 160 249 40
    endloop
  endfacet
  facet normal 0 -1 0
    outer loop
      vertex 0 0 40
      vertex 400 0 80
      vertex 0 0 80
    endloop
  endfacet
  facet normal 0 -1 -0
    outer loop
      vertex 400 0 80
      vertex 0 0 40
      vertex 400 0 40
    endloop
  endfacet
  facet normal 1 -0 0
    outer loop
      vertex 60 60 80
      vertex 60 250 42
      vertex 60 250 80
    endloop
  endfacet
  facet normal 1 0 0
    outer loop
      vertex 60 250 42
      vertex 60 60 80
      vertex 60 60 42
    endloop
  endfacet
  facet normal -1 0 0
    outer loop
      vertex 340 60 42
      vertex 340 250 80
      vertex 340 250 42
    endloop
  endfacet
  facet normal -1 -0 0
    outer loop
      vertex 340 250 80
      vertex 340 60 42
      vertex 340 60 80
    endloop
  endfacet
  facet normal 0 -1 0
    outer loop
      vertex 240 250 42
      vertex 340 250 80
      vertex 240 250 80
    endloop
  endfacet
  facet normal 0 -1 -0
    outer loop
      vertex 340 250 80
      vertex 240 250 42
      vertex 340 250 42
    endloop
  endfacet
  facet normal 0 -1 0
    outer loop
      vertex 60 250 42
      vertex 160 250 80
      vertex 60 250 80
    endloop
  endfacet
  facet normal 0 -1 -0
    outer loop
      vertex 160 250 80
      vertex 60 250 42
      vertex 160 250 42
    endloop
  endfacet
  facet normal 0 0 1
    outer loop
      vertex 160 250 42
      vertex 90 220 42
      vertex 160 249 42
    endloop
  endfacet
  facet normal 0 0 1
    outer loop
      vertex 90 220 42
      vertex 60 250 42
      vertex 90 90 42
    endloop
  endfacet
  facet normal -0 0 1
    outer loop
      vertex 60 250 42
      vertex 90 220 42
      vertex 160 250 42
    endloop
  endfacet
  facet normal 0 0 1
    outer loop
      vertex 240 249 42
      vertex 165 221 42
      vertex 235 221 42
    endloop
  endfacet
  facet normal -0 0 1
    outer loop
      vertex 160 249 42
      vertex 165 221 42
      vertex 240 249 42
    endloop
  endfacet
  facet normal 0 0 1
    outer loop
      vertex 90 220 42
      vertex 165 221 42
      vertex 160 249 42
    endloop
  endfacet
  facet normal 0 0 1
    outer loop
      vertex 165 221 42
      vertex 90 220 42
      vertex 165 220 42
    endloop
  endfacet
  facet normal 0 0 1
    outer loop
      vertex 340 250 42
      vertex 310 220 42
      vertex 340 60 42
    endloop
  endfacet
  facet normal -0 0 1
    outer loop
      vertex 240 250 42
      vertex 310 220 42
      vertex 340 250 42
    endloop
  endfacet
  facet normal -0 0 1
    outer loop
      vertex 240 249 42
      vertex 310 220 42
      vertex 240 250 42
    endloop
  endfacet
  facet normal -0 0 1
    outer loop
      vertex 235 221 42
      vertex 310 220 42
      vertex 240 249 42
    endloop
  endfacet
  facet normal 0 0 1
    outer loop
      vertex 310 220 42
      vertex 235 221 42
      vertex 235 220 42
    endloop
  endfacet
  facet normal -0 0 1
    outer loop
      vertex 310 90 42
      vertex 340 60 42
      vertex 310 220 42
    endloop
  endfacet
  facet normal -0 0 1
    outer loop
      vertex 90 90 42
      vertex 340 60 42
      vertex 310 90 42
    endloop
  endfacet
  facet normal 0 0 1
    outer loop
      vertex 90 90 42
      vertex 60 60 42
      vertex 340 60 42
    endloop
  endfacet
  facet normal 0 0 1
    outer loop
      vertex 60 60 42
      vertex 90 90 42
      vertex 60 250 42
    endloop
  endfacet
  facet normal 0 1 -0
    outer loop
      vertex 340 60 42
      vertex 60 60 80
      vertex 340 60 80
    endloop
  endfacet
  facet normal 0 1 0
    outer loop
      vertex 60 60 80
      vertex 340 60 42
      vertex 60 60 42
    endloop
  endfacet
  facet normal 1 0 0
    outer loop
      vertex 160 250 42
      vertex 160 304 80
      vertex 160 250 80
    endloop
  endfacet
  facet normal 1 0 0
    outer loop
      vertex 160 304 80
      vertex 160 250 42
      vertex 160 304 40
    endloop
  endfacet
  facet normal 1 0 0
    outer loop
      vertex 160 249 40
      vertex 160 250 42
      vertex 160 249 42
    endloop
  endfacet
  facet normal 1 0 0
    outer loop
      vertex 160 250 42
      vertex 160 249 40
      vertex 160 304 40
    endloop
  endfacet
  facet normal -1 0 0
    outer loop
      vertex 240 304 40
      vertex 240 250 42
      vertex 240 304 80
    endloop
  endfacet
  facet normal -1 0 0
    outer loop
      vertex 240 249 40
      vertex 240 250 42
      vertex 240 304 40
    endloop
  endfacet
  facet normal -1 -0 0
    outer loop
      vertex 240 250 42
      vertex 240 249 40
      vertex 240 249 42
    endloop
  endfacet
  facet normal -1 -0 0
    outer loop
      vertex 240 304 80
      vertex 240 250 42
      vertex 240 250 80
    endloop
  endfacet
  facet normal 0 -1 0
    outer loop
      vertex 160 304 40
      vertex 240 304 80
      vertex 160 304 80
    endloop
  endfacet
  facet normal 0 -1 -0
    outer loop
      vertex 240 304 80
      vertex 160 304 40
      vertex 240 304 40
    endloop
  endfacet
  facet normal 0 1 -0
    outer loop
      vertex 240 249 40
      vertex 160 249 42
      vertex 240 249 42
    endloop
  endfacet
  facet normal 0 1 0
    outer loop
      vertex 160 249 42
      vertex 240 249 40
      vertex 160 249 40
    endloop
  endfacet
  facet normal -1 0 0
    outer loop
      vertex 90 90 42
      vertex 90 220 85
      vertex 90 220 42
    endloop
  endfacet
  facet normal -1 -0 0
    outer loop
      vertex 90 220 85
      vertex 90 90 42
      vertex 90 90 85
    endloop
  endfacet
  facet normal 0 0 1
    outer loop
      vertex 165 220 85
      vertex 90 220 85
      vertex 165 105 85
    endloop
  endfacet
  facet normal 0 0 1
    outer loop
      vertex 235 105 85
      vertex 310 220 85
      vertex 235 220 85
    endloop
  endfacet
  facet normal 0 0 1
    outer loop
      vertex 310 220 85
      vertex 235 105 85
      vertex 310 90 85
    endloop
  endfacet
  facet normal -0 0 1
    outer loop
      vertex 165 105 85
      vertex 310 90 85
      vertex 235 105 85
    endloop
  endfacet
  facet normal 0 0 1
    outer loop
      vertex 165 105 85
      vertex 90 90 85
      vertex 310 90 85
    endloop
  endfacet
  facet normal 0 0 1
    outer loop
      vertex 90 90 85
      vertex 165 105 85
      vertex 90 220 85
    endloop
  endfacet
  facet normal 1 -0 0
    outer loop
      vertex 310 90 85
      vertex 310 220 42
      vertex 310 220 85
    endloop
  endfacet
  facet normal 1 0 0
    outer loop
      vertex 310 220 42
      vertex 310 90 85
      vertex 310 90 42
    endloop
  endfacet
  facet normal 0 1 -0
    outer loop
      vertex 310 220 42
      vertex 235 220 85
      vertex 310 220 85
    endloop
  endfacet
  facet normal 0 1 0
    outer loop
      vertex 235 220 85
      vertex 310 220 42
      vertex 235 220 42
    endloop
  endfacet
  facet normal 0 1 -0
    outer loop
      vertex 165 220 42
      vertex 90 220 85
      vertex 165 220 85
    endloop
  endfacet
  facet normal 0 1 0
    outer loop
      vertex 90 220 85
      vertex 165 220 42
      vertex 90 220 42
    endloop
  endfacet
  facet normal 0 -1 0
    outer loop
      vertex 90 90 42
      vertex 310 90 85
      vertex 90 90 85
    endloop
  endfacet
  facet normal 0 -1 -0
    outer loop
      vertex 310 90 85
      vertex 90 90 42
      vertex 310 90 42
    endloop
  endfacet
  facet normal 1 0 0
    outer loop
      vertex 165 220 85
      vertex 165 105 85
      vertex 165 220 42
    endloop
  endfacet
  facet normal 1 -0 0
    outer loop
      vertex 165 220 42
      vertex 165 221 40
      vertex 165 221 42
    endloop
  endfacet
  facet normal 1 0 0
    outer loop
      vertex 165 105 40
      vertex 165 220 42
      vertex 165 105 85
    endloop
  endfacet
  facet normal 1 0 0
    outer loop
      vertex 165 220 42
      vertex 165 105 40
      vertex 165 221 40
    endloop
  endfacet
  facet normal -1 0 0
    outer loop
      vertex 235 221 40
      vertex 235 220 42
      vertex 235 221 42
    endloop
  endfacet
  facet normal -1 0 0
    outer loop
      vertex 235 105 40
      vertex 235 220 42
      vertex 235 221 40
    endloop
  endfacet
  facet normal -1 0 0
    outer loop
      vertex 235 105 85
      vertex 235 220 42
      vertex 235 105 40
    endloop
  endfacet
  facet normal -1 0 0
    outer loop
      vertex 235 220 42
      vertex 235 105 85
      vertex 235 220 85
    endloop
  endfacet
  facet normal 0 -1 0
    outer loop
      vertex 165 221 40
      vertex 235 221 42
      vertex 165 221 42
    endloop
  endfacet
  facet normal 0 -1 -0
    outer loop
      vertex 235 221 42
      vertex 165 221 40
      vertex 235 221 40
    endloop
  endfacet
  facet normal 0 1 -0
    outer loop
      vertex 235 105 40
      vertex 165 105 85
      vertex 235 105 85
    endloop
  endfacet
  facet normal 0 1 0
    outer loop
      vertex 165 105 85
      vertex 235 105 40
      vertex 165 105 40
    endloop
  endfacet
endsolid OpenSCAD_Model
