solid OpenSCAD_Model
  facet normal -0 0 1
    outer loop
      vertex 0 310 82
      vertex 400 0 82
      vertex 400 310 82
    endloop
  endfacet
  facet normal 0 0 1
    outer loop
      vertex 400 0 82
      vertex 0 310 82
      vertex 0 0 82
    endloop
  endfacet
  facet normal 0 0 -1
    outer loop
      vertex 0 0 80
      vertex 400 310 80
      vertex 400 0 80
    endloop
  endfacet
  facet normal -0 0 -1
    outer loop
      vertex 400 310 80
      vertex 0 0 80
      vertex 0 310 80
    endloop
  endfacet
  facet normal 0 -1 0
    outer loop
      vertex 0 0 80
      vertex 400 0 82
      vertex 0 0 82
    endloop
  endfacet
  facet normal 0 -1 -0
    outer loop
      vertex 400 0 82
      vertex 0 0 80
      vertex 400 0 80
    endloop
  endfacet
  facet normal 1 -0 0
    outer loop
      vertex 400 0 82
      vertex 400 310 80
      vertex 400 310 82
    endloop
  endfacet
  facet normal 1 0 0
    outer loop
      vertex 400 310 80
      vertex 400 0 82
      vertex 400 0 80
    endloop
  endfacet
  facet normal 0 1 -0
    outer loop
      vertex 400 310 80
      vertex 0 310 82
      vertex 400 310 82
    endloop
  endfacet
  facet normal 0 1 0
    outer loop
      vertex 0 310 82
      vertex 400 310 80
      vertex 0 310 80
    endloop
  endfacet
  facet normal -1 0 0
    outer loop
      vertex 0 0 80
      vertex 0 310 82
      vertex 0 310 80
    endloop
  endfacet
  facet normal -1 -0 0
    outer loop
      vertex 0 310 82
      vertex 0 0 80
      vertex 0 0 82
    endloop
  endfacet
endsolid OpenSCAD_Model
