solid OpenSCAD_Model
  facet normal -1 0 0
    outer loop
      vertex 165 93 -5
      vertex 165 94 39
      vertex 165 94 -5
    endloop
  endfacet
  facet normal -1 -0 0
    outer loop
      vertex 165 94 39
      vertex 165 93 -5
      vertex 165 93 39
    endloop
  endfacet
  facet normal -0 0 1
    outer loop
      vertex 165 94 39
      vertex 235 93 39
      vertex 235 94 39
    endloop
  endfacet
  facet normal 0 0 1
    outer loop
      vertex 235 93 39
      vertex 165 94 39
      vertex 165 93 39
    endloop
  endfacet
  facet normal 1 -0 0
    outer loop
      vertex 235 93 39
      vertex 235 94 -5
      vertex 235 94 39
    endloop
  endfacet
  facet normal 1 0 0
    outer loop
      vertex 235 94 -5
      vertex 235 93 39
      vertex 235 93 -5
    endloop
  endfacet
  facet normal 0 0 -1
    outer loop
      vertex 165 93 -5
      vertex 235 94 -5
      vertex 235 93 -5
    endloop
  endfacet
  facet normal -0 0 -1
    outer loop
      vertex 235 94 -5
      vertex 165 93 -5
      vertex 165 94 -5
    endloop
  endfacet
  facet normal 0 -1 0
    outer loop
      vertex 165 93 -5
      vertex 235 93 39
      vertex 165 93 39
    endloop
  endfacet
  facet normal 0 -1 -0
    outer loop
      vertex 235 93 39
      vertex 165 93 -5
      vertex 235 93 -5
    endloop
  endfacet
  facet normal 0 1 -0
    outer loop
      vertex 235 94 -5
      vertex 165 94 39
      vertex 235 94 39
    endloop
  endfacet
  facet normal 0 1 0
    outer loop
      vertex 165 94 39
      vertex 235 94 -5
      vertex 165 94 -5
    endloop
  endfacet
  facet normal -1 0 0
    outer loop
      vertex 165 205 -5
      vertex 165 206 85
      vertex 165 206 -5
    endloop
  endfacet
  facet normal -1 -0 0
    outer loop
      vertex 165 206 85
      vertex 165 205 -5
      vertex 165 205 85
    endloop
  endfacet
  facet normal -0 0 1
    outer loop
      vertex 165 206 85
      vertex 235 205 85
      vertex 235 206 85
    endloop
  endfacet
  facet normal 0 0 1
    outer loop
      vertex 235 205 85
      vertex 165 206 85
      vertex 165 205 85
    endloop
  endfacet
  facet normal 1 -0 0
    outer loop
      vertex 235 205 85
      vertex 235 206 -5
      vertex 235 206 85
    endloop
  endfacet
  facet normal 1 0 0
    outer loop
      vertex 235 206 -5
      vertex 235 205 85
      vertex 235 205 -5
    endloop
  endfacet
  facet normal 0 1 -0
    outer loop
      vertex 235 206 -5
      vertex 165 206 85
      vertex 235 206 85
    endloop
  endfacet
  facet normal 0 1 0
    outer loop
      vertex 165 206 85
      vertex 235 206 -5
      vertex 165 206 -5
    endloop
  endfacet
  facet normal 0 0 -1
    outer loop
      vertex 165 205 -5
      vertex 235 206 -5
      vertex 235 205 -5
    endloop
  endfacet
  facet normal -0 0 -1
    outer loop
      vertex 235 206 -5
      vertex 165 205 -5
      vertex 165 206 -5
    endloop
  endfacet
  facet normal 0 -1 0
    outer loop
      vertex 165 205 -5
      vertex 235 205 85
      vertex 165 205 85
    endloop
  endfacet
  facet normal 0 -1 -0
    outer loop
      vertex 235 205 85
      vertex 165 205 -5
      vertex 235 205 -5
    endloop
  endfacet
endsolid OpenSCAD_Model
