{"asset":{"generator":"3D Builder","version":"2.0"},"scene":0,"scenes":[{"nodes":[0,1,2,3,4,5,6,7,8,9,10,11,12,13,14,15,16,17,18,19]}],"nodes":[{"mesh":0,"matrix":[0.0040350747294723988,0,0,0,0,-4.810183917847155E-10,-0.0040350742638111115,0,0,0.0040350742638111115,-4.810183917847155E-10,0,2.5772769731702283E-6,1.4914317907237305E-15,1.2511034874762572E-8,1]},{"mesh":1,"matrix":[0.0040350747294723988,0,0,0,0,-4.810183917847155E-10,-0.0040350742638111115,0,0,0.0040350742638111115,-4.810183917847155E-10,0,2.5772294520720607E-6,1.4914097678671019E-15,1.2510850133651275E-8,1]},{"mesh":2,"matrix":[0.0040350747294723988,0,0,0,0,-4.810183917847155E-10,-0.0040350742638111115,0,0,0.0040350742638111115,-4.810183917847155E-10,0,2.5772294520720607E-6,1.4914097678671019E-15,1.2510850133651275E-8,1]},{"mesh":3,"matrix":[0.0040350747294723988,0,0,0,0,-4.810183917847155E-10,-0.0040350742638111115,0,0,0.0040350742638111115,-4.810183917847155E-10,0,2.5772294520720607E-6,1.4914097678671019E-15,1.2510850133651275E-8,1]},{"mesh":4,"matrix":[0.0040350747294723988,0,0,0,0,-4.810183917847155E-10,-0.0040350742638111115,0,0,0.0040350742638111115,-4.810183917847155E-10,0,2.5772294520720607E-6,1.4914097678671019E-15,1.2510850133651275E-8,1]},{"mesh":5,"matrix":[0.0040350747294723988,0,0,0,0,-4.810183917847155E-10,-0.0040350742638111115,0,0,0.0040350742638111115,-4.810183917847155E-10,0,2.5772294520720607E-6,1.4914097678671019E-15,1.2510850133651275E-8,1]},{"mesh":6,"matrix":[0.0040350747294723988,0,0,0,0,-4.810183917847155E-10,-0.0040350742638111115,0,0,0.0040350742638111115,-4.810183917847155E-10,0,2.5772294520720607E-6,1.4914097678671019E-15,1.2510850133651275E-8,1]},{"mesh":7,"matrix":[0.0040350747294723988,0,0,0,0,-4.810183917847155E-10,-0.0040350742638111115,0,0,0.0040350742638111115,-4.810183917847155E-10,0,2.5772294520720607E-6,1.4914097678671019E-15,1.2510850133651275E-8,1]},{"mesh":8,"matrix":[0.0040350747294723988,0,0,0,0,-4.810183917847155E-10,-0.0040350742638111115,0,0,0.0040350742638111115,-4.810183917847155E-10,0,2.5772294520720607E-6,1.4914097678671019E-15,1.2510850133651275E-8,1]},{"mesh":9,"matrix":[0.0040350747294723988,0,0,0,0,-4.810183917847155E-10,-0.0040350742638111115,0,0,0.0040350742638111115,-4.810183917847155E-10,0,2.5772294520720607E-6,1.4914097678671019E-15,1.2510850133651275E-8,1]},{"mesh":10,"matrix":[0.0040350747294723988,0,0,0,0,-4.810183917847155E-10,-0.0040350742638111115,0,0,0.0040350742638111115,-4.810183917847155E-10,0,2.5772294520720607E-6,1.4914097678671019E-15,1.2510850133651275E-8,1]},{"mesh":11,"matrix":[0.0040350747294723988,0,0,0,0,-4.810183917847155E-10,-0.0040350742638111115,0,0,0.0040350742638111115,-4.810183917847155E-10,0,2.5772294520720607E-6,1.4914097678671019E-15,1.2510850133651275E-8,1]},{"mesh":12,"matrix":[0.0040350747294723988,0,0,0,0,-4.810183917847155E-10,-0.0040350742638111115,0,0,0.0040350742638111115,-4.810183917847155E-10,0,2.5772294520720607E-6,1.4914097678671019E-15,1.2510850133651275E-8,1]},{"mesh":13,"matrix":[0.0040350747294723988,0,0,0,0,-4.810183917847155E-10,-0.0040350742638111115,0,0,0.0040350742638111115,-4.810183917847155E-10,0,2.5772294520720607E-6,1.4914097678671019E-15,1.2510850133651275E-8,1]},{"mesh":14,"matrix":[0.0040350747294723988,0,0,0,0,-4.810183917847155E-10,-0.0040350742638111115,0,0,0.0040350742638111115,-4.810183917847155E-10,0,2.5772294520720607E-6,1.4914097678671019E-15,1.2510850133651275E-8,1]},{"mesh":15,"matrix":[0.0040350747294723988,0,0,0,0,-4.810183917847155E-10,-0.0040350742638111115,0,0,0.0040350742638111115,-4.810183917847155E-10,0,2.5772294520720607E-6,1.4914097678671019E-15,1.2510850133651275E-8,1]},{"mesh":16,"matrix":[0.0040350747294723988,0,0,0,0,-4.810183917847155E-10,-0.0040350742638111115,0,0,0.0040350742638111115,-4.810183917847155E-10,0,2.5772294520720607E-6,1.4914097678671019E-15,1.2510850133651275E-8,1]},{"mesh":17,"matrix":[0.0040350747294723988,0,0,0,0,-4.810183917847155E-10,-0.0040350742638111115,0,0,0.0040350742638111115,-4.810183917847155E-10,0,2.5772294520720607E-6,1.4914097678671019E-15,1.2510850133651275E-8,1]},{"mesh":18,"matrix":[0.0040350747294723988,0,0,0,0,-4.810183917847155E-10,-0.0040350742638111115,0,0,0.0040350742638111115,-4.810183917847155E-10,0,2.5772294520720607E-6,1.4914097678671019E-15,1.2510850133651275E-8,1]},{"mesh":19,"matrix":[0.0040350747294723988,0,0,0,0,-4.810183917847155E-10,-0.0040350742638111115,0,0,0.0040350742638111115,-4.810183917847155E-10,0,2.5772294520720607E-6,1.4914097678671019E-15,1.2510850133651275E-8,1]}],"meshes":[{"primitives":[{"attributes":{"POSITION":0},"mode":4,"indices":1,"material":0}]},{"primitives":[{"attributes":{"POSITION":2},"mode":4,"indices":3,"material":0}]},{"primitives":[{"attributes":{"POSITION":4},"mode":4,"indices":5,"material":0}]},{"primitives":[{"attributes":{"POSITION":6},"mode":4,"indices":7,"material":0}]},{"primitives":[{"attributes":{"POSITION":8,"TEXCOORD_0":9},"mode":4,"indices":10,"material":1}]},{"primitives":[{"attributes":{"POSITION":11,"TEXCOORD_0":12},"mode":4,"indices":13,"material":1}]},{"primitives":[{"attributes":{"POSITION":14,"TEXCOORD_0":15},"mode":4,"indices":16,"material":1}]},{"primitives":[{"attributes":{"POSITION":17},"mode":4,"indices":18,"material":0}]},{"primitives":[{"attributes":{"POSITION":19,"TEXCOORD_0":20},"mode":4,"indices":21,"material":2}]},{"primitives":[{"attributes":{"POSITION":22,"TEXCOORD_0":23},"mode":4,"indices":24,"material":3}]},{"primitives":[{"attributes":{"POSITION":25,"TEXCOORD_0":26},"mode":4,"indices":27,"material":1}]},{"primitives":[{"attributes":{"POSITION":28,"TEXCOORD_0":29},"mode":4,"indices":30,"material":1}]},{"primitives":[{"attributes":{"POSITION":31},"mode":4,"indices":32,"material":0}]},{"primitives":[{"attributes":{"POSITION":33},"mode":4,"indices":34,"material":0}]},{"primitives":[{"attributes":{"POSITION":35},"mode":4,"indices":36,"material":0}]},{"primitives":[{"attributes":{"POSITION":37},"mode":4,"indices":38,"material":0}]},{"primitives":[{"attributes":{"POSITION":39,"TEXCOORD_0":40},"mode":4,"indices":41,"material":2}]},{"primitives":[{"attributes":{"POSITION":42,"TEXCOORD_0":43},"mode":4,"indices":44,"material":3}]},{"primitives":[{"attributes":{"POSITION":45},"mode":4,"indices":46,"material":0}]},{"primitives":[{"attributes":{"POSITION":47},"mode":4,"indices":48,"material":0}]}],"materials":[{"pbrMetallicRoughness":{"baseColorFactor":[0.1332085132598877,0.1332085132598877,0.1332085132598877,1],"metallicFactor":0,"roughnessFactor":0},"alphaMode":"OPAQUE"},{"pbrMetallicRoughness":{"baseColorFactor":[1,1,1,1],"metallicFactor":0,"roughnessFactor":1,"baseColorTexture":{"index":0,"texCoord":0}},"alphaMode":"OPAQUE"},{"pbrMetallicRoughness":{"baseColorFactor":[1,1,1,1],"metallicFactor":0,"roughnessFactor":1,"baseColorTexture":{"index":1,"texCoord":0}},"alphaMode":"OPAQUE"},{"pbrMetallicRoughness":{"baseColorFactor":[1,1,1,1],"metallicFactor":0,"roughnessFactor":1,"baseColorTexture":{"index":2,"texCoord":0}},"alphaMode":"OPAQUE"}],"accessors":[{"bufferView":0,"byteOffset":0,"count":302,"componentType":5126,"type":"VEC3","min":[-26.759675979614258,9.35202407836914,332.64486694335937],"max":[43.614322662353516,70.128013610839844,502.716796875]},{"bufferView":1,"byteOffset":0,"count":1818,"componentType":5125,"type":"SCALAR"},{"bufferView":2,"byteOffset":0,"count":12,"componentType":5126,"type":"VEC3","min":[-67.7964859008789,-44.117519378662109,418.95285034179687],"max":[-50.719535827636719,-33.723396301269531,440.98294067382812]},{"bufferView":3,"byteOffset":0,"count":60,"componentType":5125,"type":"SCALAR"},{"bufferView":4,"byteOffset":0,"count":68,"componentType":5126,"type":"VEC3","min":[-27.580642700195313,23.226493835449219,345.17312622070312],"max":[27.58064079284668,77.748481750488281,472.2786865234375]},{"bufferView":5,"byteOffset":0,"count":396,"componentType":5125,"type":"SCALAR"},{"bufferView":6,"byteOffset":0,"count":32,"componentType":5126,"type":"VEC3","min":[-6.5546817779541016,51.42755126953125,470.89309692382812],"max":[6.6034841537475586,64.599319458007813,473.09585571289063]},{"bufferView":7,"byteOffset":0,"count":216,"componentType":5125,"type":"SCALAR"},{"bufferView":8,"byteOffset":0,"count":170,"componentType":5126,"type":"VEC3","min":[99.003143310546875,-48.057353973388672,254.92710876464844],"max":[181.77114868164062,13.978633880615234,383.16107177734375]},{"bufferView":9,"byteOffset":0,"count":170,"componentType":5126,"type":"VEC2"},{"bufferView":10,"byteOffset":0,"count":810,"componentType":5125,"type":"SCALAR"},{"bufferView":11,"byteOffset":0,"count":176,"componentType":5126,"type":"VEC3","min":[-53.201286315917969,-55.641792297363281,329.95303344726562],"max":[53.200721740722656,30.274187088012695,348.65902709960937]},{"bufferView":12,"byteOffset":0,"count":176,"componentType":5126,"type":"VEC2"},{"bufferView":13,"byteOffset":0,"count":408,"componentType":5125,"type":"SCALAR"},{"bufferView":14,"byteOffset":0,"count":132,"componentType":5126,"type":"VEC3","min":[-68.695518493652344,-77.74847412109375,3.0517578125E-5],"max":[-13.639514923095703,29.583498001098633,111.03799438476562]},{"bufferView":15,"byteOffset":0,"count":132,"componentType":5126,"type":"VEC2"},{"bufferView":16,"byteOffset":0,"count":384,"componentType":5125,"type":"SCALAR"},{"bufferView":17,"byteOffset":0,"count":82,"componentType":5126,"type":"VEC3","min":[-9.8908004760742187,-57.117359161376953,331.17138671875],"max":[9.8892002105712891,-43.313362121582031,351.49737548828125]},{"bufferView":18,"byteOffset":0,"count":480,"componentType":5125,"type":"SCALAR"},{"bufferView":19,"byteOffset":0,"count":107,"componentType":5126,"type":"VEC3","min":[-52.663459777832031,-56.484443664550781,415.31039428710937],"max":[50.868545532226563,30.729536056518555,550.67236328125]},{"bufferView":20,"byteOffset":0,"count":107,"componentType":5126,"type":"VEC2"},{"bufferView":21,"byteOffset":0,"count":342,"componentType":5125,"type":"SCALAR"},{"bufferView":22,"byteOffset":0,"count":42,"componentType":5126,"type":"VEC3","min":[-22.398761749267578,-51.017749786376953,449.71759033203125],"max":[22.651241302490234,-34.907752990722656,533.4696044921875]},{"bufferView":23,"byteOffset":0,"count":42,"componentType":5126,"type":"VEC2"},{"bufferView":24,"byteOffset":0,"count":240,"componentType":5125,"type":"SCALAR"},{"bufferView":25,"byteOffset":0,"count":113,"componentType":5126,"type":"VEC3","min":[17.238882064819336,-77.74847412109375,3.0517578125E-5],"max":[65.192886352539063,25.565492630004883,116.43800354003906]},{"bufferView":26,"byteOffset":0,"count":113,"componentType":5126,"type":"VEC2"},{"bufferView":27,"byteOffset":0,"count":402,"componentType":5125,"type":"SCALAR"},{"bufferView":28,"byteOffset":0,"count":175,"componentType":5126,"type":"VEC3","min":[-181.77243041992187,-48.057353973388672,254.92710876464844],"max":[-100.12642669677734,12.340633392333984,382.0650634765625]},{"bufferView":29,"byteOffset":0,"count":175,"componentType":5126,"type":"VEC2"},{"bufferView":30,"byteOffset":0,"count":792,"componentType":5125,"type":"SCALAR"},{"bufferView":31,"byteOffset":0,"count":38,"componentType":5126,"type":"VEC3","min":[-33.240203857421875,48.2819709777832,410.67697143554687],"max":[-17.288204193115234,59.035961151123047,426.7769775390625]},{"bufferView":32,"byteOffset":0,"count":216,"componentType":5125,"type":"SCALAR"},{"bufferView":33,"byteOffset":0,"count":38,"componentType":5126,"type":"VEC3","min":[17.288261413574219,48.2819709777832,410.67697143554687],"max":[33.240261077880859,59.035961151123047,426.7769775390625]},{"bufferView":34,"byteOffset":0,"count":216,"componentType":5125,"type":"SCALAR"},{"bufferView":35,"byteOffset":0,"count":42,"componentType":5126,"type":"VEC3","min":[-27.602127075195313,28.162866592407227,352.281982421875],"max":[-13.292126655578613,43.992862701416016,360.96798706054687]},{"bufferView":36,"byteOffset":0,"count":240,"componentType":5125,"type":"SCALAR"},{"bufferView":37,"byteOffset":0,"count":42,"componentType":5126,"type":"VEC3","min":[13.291316986083984,28.162862777709961,352.281982421875],"max":[27.601318359375,43.99285888671875,360.96798706054687]},{"bufferView":38,"byteOffset":0,"count":240,"componentType":5125,"type":"SCALAR"},{"bufferView":39,"byteOffset":0,"count":183,"componentType":5126,"type":"VEC3","min":[-57.925483703613281,-45.641201019287109,95.902542114257813],"max":[58.286521911621094,29.124784469604492,329.20648193359375]},{"bufferView":40,"byteOffset":0,"count":183,"componentType":5126,"type":"VEC2"},{"bufferView":41,"byteOffset":0,"count":672,"componentType":5125,"type":"SCALAR"},{"bufferView":42,"byteOffset":0,"count":236,"componentType":5126,"type":"VEC3","min":[-145.99046325683594,-57.784000396728516,265.79531860351562],"max":[145.64155578613281,38.253971099853516,472.95928955078125]},{"bufferView":43,"byteOffset":0,"count":236,"componentType":5126,"type":"VEC2"},{"bufferView":44,"byteOffset":0,"count":984,"componentType":5125,"type":"SCALAR"},{"bufferView":45,"byteOffset":0,"count":52,"componentType":5126,"type":"VEC3","min":[-65.995124816894531,-39.297466278076172,354.83319091796875],"max":[-9.9151220321655273,57.060508728027344,467.25714111328125]},{"bufferView":46,"byteOffset":0,"count":300,"componentType":5125,"type":"SCALAR"},{"bufferView":47,"byteOffset":0,"count":52,"componentType":5126,"type":"VEC3","min":[9.9140129089355469,-39.297466278076172,354.83319091796875],"max":[65.9940185546875,57.060508728027344,467.25714111328125]},{"bufferView":48,"byteOffset":0,"count":300,"componentType":5125,"type":"SCALAR"}],"textures":[{"source":0,"sampler":0},{"source":1,"sampler":0},{"source":2,"sampler":0}],"images":[{"uri":"sol01.png"},{"uri":"jqune01.jpg"},{"uri":"vert02.jpg"}],"samplers":[{"magFilter":9729,"wrapS":10497,"wrapT":10497}],"bufferViews":[{"buffer":0,"byteOffset":0,"byteLength":3624,"byteStride":12,"target":34962},{"buffer":0,"byteOffset":3624,"byteLength":7272,"target":34963},{"buffer":0,"byteOffset":10896,"byteLength":144,"byteStride":12,"target":34962},{"buffer":0,"byteOffset":11040,"byteLength":240,"target":34963},{"buffer":0,"byteOffset":11280,"byteLength":816,"byteStride":12,"target":34962},{"buffer":0,"byteOffset":12096,"byteLength":1584,"target":34963},{"buffer":0,"byteOffset":13680,"byteLength":384,"byteStride":12,"target":34962},{"buffer":0,"byteOffset":14064,"byteLength":864,"target":34963},{"buffer":0,"byteOffset":14928,"byteLength":2040,"byteStride":12,"target":34962},{"buffer":0,"byteOffset":16968,"byteLength":1360,"byteStride":8,"target":34962},{"buffer":0,"byteOffset":18328,"byteLength":3240,"target":34963},{"buffer":0,"byteOffset":21568,"byteLength":2112,"byteStride":12,"target":34962},{"buffer":0,"byteOffset":23680,"byteLength":1408,"byteStride":8,"target":34962},{"buffer":0,"byteOffset":25088,"byteLength":1632,"target":34963},{"buffer":0,"byteOffset":26720,"byteLength":1584,"byteStride":12,"target":34962},{"buffer":0,"byteOffset":28304,"byteLength":1056,"byteStride":8,"target":34962},{"buffer":0,"byteOffset":29360,"byteLength":1536,"target":34963},{"buffer":0,"byteOffset":30896,"byteLength":984,"byteStride":12,"target":34962},{"buffer":0,"byteOffset":31880,"byteLength":1920,"target":34963},{"buffer":0,"byteOffset":33800,"byteLength":1284,"byteStride":12,"target":34962},{"buffer":0,"byteOffset":35084,"byteLength":856,"byteStride":8,"target":34962},{"buffer":0,"byteOffset":35940,"byteLength":1368,"target":34963},{"buffer":0,"byteOffset":37308,"byteLength":504,"byteStride":12,"target":34962},{"buffer":0,"byteOffset":37812,"byteLength":336,"byteStride":8,"target":34962},{"buffer":0,"byteOffset":38148,"byteLength":960,"target":34963},{"buffer":0,"byteOffset":39108,"byteLength":1356,"byteStride":12,"target":34962},{"buffer":0,"byteOffset":40464,"byteLength":904,"byteStride":8,"target":34962},{"buffer":0,"byteOffset":41368,"byteLength":1608,"target":34963},{"buffer":0,"byteOffset":42976,"byteLength":2100,"byteStride":12,"target":34962},{"buffer":0,"byteOffset":45076,"byteLength":1400,"byteStride":8,"target":34962},{"buffer":0,"byteOffset":46476,"byteLength":3168,"target":34963},{"buffer":0,"byteOffset":49644,"byteLength":456,"byteStride":12,"target":34962},{"buffer":0,"byteOffset":50100,"byteLength":864,"target":34963},{"buffer":0,"byteOffset":50964,"byteLength":456,"byteStride":12,"target":34962},{"buffer":0,"byteOffset":51420,"byteLength":864,"target":34963},{"buffer":0,"byteOffset":52284,"byteLength":504,"byteStride":12,"target":34962},{"buffer":0,"byteOffset":52788,"byteLength":960,"target":34963},{"buffer":0,"byteOffset":53748,"byteLength":504,"byteStride":12,"target":34962},{"buffer":0,"byteOffset":54252,"byteLength":960,"target":34963},{"buffer":0,"byteOffset":55212,"byteLength":2196,"byteStride":12,"target":34962},{"buffer":0,"byteOffset":57408,"byteLength":1464,"byteStride":8,"target":34962},{"buffer":0,"byteOffset":58872,"byteLength":2688,"target":34963},{"buffer":0,"byteOffset":61560,"byteLength":2832,"byteStride":12,"target":34962},{"buffer":0,"byteOffset":64392,"byteLength":1888,"byteStride":8,"target":34962},{"buffer":0,"byteOffset":66280,"byteLength":3936,"target":34963},{"buffer":0,"byteOffset":70216,"byteLength":624,"byteStride":12,"target":34962},{"buffer":0,"byteOffset":70840,"byteLength":1200,"target":34963},{"buffer":0,"byteOffset":72040,"byteLength":624,"byteStride":12,"target":34962},{"buffer":0,"byteOffset":72664,"byteLength":1200,"target":34963}],"buffers":[{"byteLength":73864,"uri":"player02.bin"}]}