{"asset":{"generator":"3D Builder","version":"2.0"},"scene":0,"scenes":[{"nodes":[0]}],"nodes":[{"children":[1,2,3,4,5,6,7]},{"mesh":0,"matrix":[0.99999994039535522,0,0,0,0,-1.1920928244535389E-7,-0.99999982118606567,0,0,0.99999982118606567,-1.1920928244535389E-7,0,0,9.59999937322209E-8,-1.1444092743763401E-14,1]},{"mesh":1,"matrix":[0.99999994039535522,0,0,0,0,-1.1920928244535389E-7,-0.99999982118606567,0,0,0.99999982118606567,-1.1920928244535389E-7,0,0,9.59999937322209E-8,-1.1444092743763401E-14,1]},{"mesh":2,"matrix":[0.99999994039535522,0,0,0,0,-1.1920928244535389E-7,-0.99999982118606567,0,0,0.99999982118606567,-1.1920928244535389E-7,0,0,9.59999937322209E-8,-1.1444092743763401E-14,1]},{"mesh":3,"matrix":[0.99999994039535522,0,0,0,0,-1.1920928244535389E-7,-0.99999982118606567,0,0,0.99999982118606567,-1.1920928244535389E-7,0,0,9.59999937322209E-8,-1.1444092743763401E-14,1]},{"mesh":4,"matrix":[0.99999994039535522,0,0,0,0,-1.1920928244535389E-7,-0.99999982118606567,0,0,0.99999982118606567,-1.1920928244535389E-7,0,0,9.59999937322209E-8,-1.1444092743763401E-14,1]},{"mesh":5,"matrix":[0.99999994039535522,0,0,0,0,-1.1920928244535389E-7,-0.99999982118606567,0,0,0.99999982118606567,-1.1920928244535389E-7,0,0,9.59999937322209E-8,-1.1444092743763401E-14,1]},{"mesh":6,"matrix":[0.99999994039535522,0,0,0,0,-1.1920928244535389E-7,-0.99999982118606567,0,0,0.99999982118606567,-1.1920928244535389E-7,0,0,9.59999937322209E-8,-1.1444092743763401E-14,1]}],"meshes":[{"primitives":[{"attributes":{"POSITION":0,"TEXCOORD_0":1},"mode":4,"indices":2,"material":0}]},{"primitives":[{"attributes":{"POSITION":3,"TEXCOORD_0":4},"mode":4,"indices":5,"material":1}]},{"primitives":[{"attributes":{"POSITION":6,"TEXCOORD_0":7},"mode":4,"indices":8,"material":2}]},{"primitives":[{"attributes":{"POSITION":9,"TEXCOORD_0":10},"mode":4,"indices":11,"material":3}]},{"primitives":[{"attributes":{"POSITION":12,"TEXCOORD_0":13},"mode":4,"indices":14,"material":3}]},{"primitives":[{"attributes":{"POSITION":15,"TEXCOORD_0":16},"mode":4,"indices":17,"material":4}]},{"primitives":[{"attributes":{"POSITION":18,"TEXCOORD_0":19},"mode":4,"indices":20,"material":5}]}],"materials":[{"pbrMetallicRoughness":{"baseColorFactor":[1,1,1,1],"metallicFactor":0,"roughnessFactor":1,"baseColorTexture":{"index":0,"texCoord":0}},"alphaMode":"OPAQUE"},{"pbrMetallicRoughness":{"baseColorFactor":[1,1,1,1],"metallicFactor":0,"roughnessFactor":1,"baseColorTexture":{"index":1,"texCoord":0}},"alphaMode":"OPAQUE"},{"pbrMetallicRoughness":{"baseColorFactor":[1,1,1,1],"metallicFactor":0,"roughnessFactor":1,"baseColorTexture":{"index":2,"texCoord":0}},"alphaMode":"OPAQUE"},{"pbrMetallicRoughness":{"baseColorFactor":[1,1,1,1],"metallicFactor":0,"roughnessFactor":1,"baseColorTexture":{"index":3,"texCoord":0}},"alphaMode":"OPAQUE"},{"pbrMetallicRoughness":{"baseColorFactor":[1,1,1,1],"metallicFactor":0,"roughnessFactor":1,"baseColorTexture":{"index":4,"texCoord":0}},"alphaMode":"OPAQUE"},{"pbrMetallicRoughness":{"baseColorFactor":[1,1,1,1],"metallicFactor":0,"roughnessFactor":1,"baseColorTexture":{"index":5,"texCoord":0}},"alphaMode":"OPAQUE"}],"textures":[{"source":0,"sampler":0},{"source":1,"sampler":0},{"source":2,"sampler":0},{"source":3,"sampler":0},{"source":4,"sampler":0},{"source":5,"sampler":0}],"images":[{"uri":"texture_6_8153810648107067296.png"},{"uri":"texture_17_17832851910588591680.png"},{"uri":"texture_13_8328196163999553924.png"},{"uri":"texture_3_6672996682974157280.png"},{"uri":"texture_10_12136749704190523488.png"},{"uri":"texture_0_15853527909305393568.png"}],"samplers":[{"magFilter":9729,"wrapS":10497,"wrapT":10497}],"accessors":[{"bufferView":0,"byteOffset":0,"count":8263,"componentType":5126,"type":"VEC3","min":[-0.67849957942962646,-0.3282754123210907,1.2867628335952759],"max":[0.67849963903427124,0.05737430602312088,1.6374655961990356]},{"bufferView":1,"byteOffset":0,"count":8263,"componentType":5126,"type":"VEC2"},{"bufferView":2,"byteOffset":0,"count":30312,"componentType":5125,"type":"SCALAR"},{"bufferView":3,"byteOffset":0,"count":853,"componentType":5126,"type":"VEC3","min":[-0.17536830902099609,0.10646446049213409,1.277368426322937],"max":[0.17536832392215729,0.3282754123210907,1.5000334978103638]},{"bufferView":4,"byteOffset":0,"count":853,"componentType":5126,"type":"VEC2"},{"bufferView":5,"byteOffset":0,"count":3018,"componentType":5125,"type":"SCALAR"},{"bufferView":6,"byteOffset":0,"count":4983,"componentType":5126,"type":"VEC3","min":[-0.13731236755847931,-0.23491199314594269,1.9639475345611572],"max":[0.1373123824596405,0.12504824995994568,2.3465566635131836]},{"bufferView":7,"byteOffset":0,"count":4983,"componentType":5126,"type":"VEC2"},{"bufferView":8,"byteOffset":0,"count":17598,"componentType":5125,"type":"SCALAR"},{"bufferView":9,"byteOffset":0,"count":402,"componentType":5126,"type":"VEC3","min":[0.022187927737832069,-0.14704848825931549,2.1250874996185303],"max":[0.0654364600777626,-0.10448319464921951,2.168370246887207]},{"bufferView":10,"byteOffset":0,"count":402,"componentType":5126,"type":"VEC2"},{"bufferView":11,"byteOffset":0,"count":2280,"componentType":5125,"type":"SCALAR"},{"bufferView":12,"byteOffset":0,"count":402,"componentType":5126,"type":"VEC3","min":[-0.0654364600777626,-0.14704848825931549,2.1250874996185303],"max":[-0.02218792587518692,-0.10448319464921951,2.168370246887207]},{"bufferView":13,"byteOffset":0,"count":402,"componentType":5126,"type":"VEC2"},{"bufferView":14,"byteOffset":0,"count":2280,"componentType":5125,"type":"SCALAR"},{"bufferView":15,"byteOffset":0,"count":2058,"componentType":5126,"type":"VEC3","min":[-0.093243964016437531,-0.18783736228942871,1.9992022514343262],"max":[0.093243964016437531,-0.0863434225320816,2.2497429847717285]},{"bufferView":16,"byteOffset":0,"count":2058,"componentType":5126,"type":"VEC2"},{"bufferView":17,"byteOffset":0,"count":11406,"componentType":5125,"type":"SCALAR"},{"bufferView":18,"byteOffset":0,"count":20939,"componentType":5126,"type":"VEC3","min":[-0.51578825712203979,-0.20604543387889862,-9.6000007943075616E-8],"max":[0.51568573713302612,0.20768511295318604,2.0780811309814453]},{"bufferView":19,"byteOffset":0,"count":20939,"componentType":5126,"type":"VEC2"},{"bufferView":20,"byteOffset":0,"count":81666,"componentType":5125,"type":"SCALAR"}],"bufferViews":[{"buffer":0,"byteOffset":0,"byteLength":99156,"byteStride":12,"target":34962},{"buffer":0,"byteOffset":99156,"byteLength":66104,"byteStride":8,"target":34962},{"buffer":0,"byteOffset":165260,"byteLength":121248,"target":34963},{"buffer":0,"byteOffset":286508,"byteLength":10236,"byteStride":12,"target":34962},{"buffer":0,"byteOffset":296744,"byteLength":6824,"byteStride":8,"target":34962},{"buffer":0,"byteOffset":303568,"byteLength":12072,"target":34963},{"buffer":0,"byteOffset":315640,"byteLength":59796,"byteStride":12,"target":34962},{"buffer":0,"byteOffset":375436,"byteLength":39864,"byteStride":8,"target":34962},{"buffer":0,"byteOffset":415300,"byteLength":70392,"target":34963},{"buffer":0,"byteOffset":485692,"byteLength":4824,"byteStride":12,"target":34962},{"buffer":0,"byteOffset":490516,"byteLength":3216,"byteStride":8,"target":34962},{"buffer":0,"byteOffset":493732,"byteLength":9120,"target":34963},{"buffer":0,"byteOffset":502852,"byteLength":4824,"byteStride":12,"target":34962},{"buffer":0,"byteOffset":507676,"byteLength":3216,"byteStride":8,"target":34962},{"buffer":0,"byteOffset":510892,"byteLength":9120,"target":34963},{"buffer":0,"byteOffset":520012,"byteLength":24696,"byteStride":12,"target":34962},{"buffer":0,"byteOffset":544708,"byteLength":16464,"byteStride":8,"target":34962},{"buffer":0,"byteOffset":561172,"byteLength":45624,"target":34963},{"buffer":0,"byteOffset":606796,"byteLength":251268,"byteStride":12,"target":34962},{"buffer":0,"byteOffset":858064,"byteLength":167512,"byteStride":8,"target":34962},{"buffer":0,"byteOffset":1025576,"byteLength":326664,"target":34963}],"buffers":[{"byteLength":1352240,"uri":"wraith.bin"}]}