# Blender v2.92.0 OBJ File: ''
# www.blender.org
mtllib cross.mtl
o Plane
v 0.583420 0.008494 0.823463
v 0.844235 0.008494 0.560408
v -0.836826 0.008494 -0.584693
v -0.576010 0.008494 -0.847748
vt 0.000000 0.000000
vt 1.000000 0.000000
vt 1.000000 1.000000
vt 0.000000 1.000000
vn 0.0000 1.0000 0.0000
usemtl None
s off
f 1/1/1 2/2/1 4/3/1 3/4/1
o Plane.001
v -0.797145 0.009195 0.547984
v -0.535174 0.009195 0.809888
v 0.616885 0.009195 -0.866413
v 0.878856 0.009195 -0.604509
vt 0.000000 0.000000
vt 1.000000 0.000000
vt 1.000000 1.000000
vt 0.000000 1.000000
vn 0.0000 1.0000 0.0000
usemtl None
s off
f 5/5/2 6/6/2 8/7/2 7/8/2
