{"asset":{"generator":"3D Builder","version":"2.0"},"scene":0,"scenes":[{"nodes":[0,1,2,3,4,5,6,7,8,9,10,11,12,13,14,15,16,17,18]}],"nodes":[{"mesh":0,"matrix":[0.099990956485271454,0,0,0,0,-1.1919850884112293E-8,-0.09999094158411026,0,0,0.09999094158411026,-1.1919850884112293E-8,0,3.8753821485215667E-8,-2.309907763315181E-15,-1.9376908966250994E-8,1]},{"mesh":1,"matrix":[0.099990956485271454,0,0,0,0,-1.1919850884112293E-8,-0.09999094158411026,0,0,0.09999094158411026,-1.1919850884112293E-8,0,3.8753800168933594E-8,-2.30990649276576E-15,-1.9376898308109958E-8,1]},{"mesh":2,"matrix":[0.099990956485271454,0,0,0,0,-1.1919850884112293E-8,-0.09999094158411026,0,0,0.09999094158411026,-1.1919850884112293E-8,0,3.8753800168933594E-8,-2.30990649276576E-15,-1.9376898308109958E-8,1]},{"mesh":3,"matrix":[0.099990956485271454,0,0,0,0,-1.1919850884112293E-8,-0.09999094158411026,0,0,0.09999094158411026,-1.1919850884112293E-8,0,3.8753800168933594E-8,-2.30990649276576E-15,-1.9376898308109958E-8,1]},{"mesh":4,"matrix":[0.099990956485271454,0,0,0,0,-1.1919850884112293E-8,-0.09999094158411026,0,0,0.09999094158411026,-1.1919850884112293E-8,0,3.8753800168933594E-8,-2.30990649276576E-15,-1.9376898308109958E-8,1]},{"mesh":5,"matrix":[0.099990956485271454,0,0,0,0,-1.1919850884112293E-8,-0.09999094158411026,0,0,0.09999094158411026,-1.1919850884112293E-8,0,3.8753800168933594E-8,-2.30990649276576E-15,-1.9376898308109958E-8,1]},{"mesh":6,"matrix":[0.099990956485271454,0,0,0,0,-1.1919850884112293E-8,-0.09999094158411026,0,0,0.09999094158411026,-1.1919850884112293E-8,0,3.8753800168933594E-8,-2.30990649276576E-15,-1.9376898308109958E-8,1]},{"mesh":7,"matrix":[0.099990956485271454,0,0,0,0,-1.1919850884112293E-8,-0.09999094158411026,0,0,0.09999094158411026,-1.1919850884112293E-8,0,3.8753800168933594E-8,-2.30990649276576E-15,-1.9376898308109958E-8,1]},{"mesh":8,"matrix":[0.099990956485271454,0,0,0,0,-1.1919850884112293E-8,-0.09999094158411026,0,0,0.09999094158411026,-1.1919850884112293E-8,0,3.8753800168933594E-8,-2.30990649276576E-15,-1.9376898308109958E-8,1]},{"mesh":9,"matrix":[0.099990956485271454,0,0,0,0,-1.1919850884112293E-8,-0.09999094158411026,0,0,0.09999094158411026,-1.1919850884112293E-8,0,3.8753800168933594E-8,-2.30990649276576E-15,-1.9376898308109958E-8,1]},{"mesh":10,"matrix":[0.099990956485271454,0,0,0,0,-1.1919850884112293E-8,-0.09999094158411026,0,0,0.09999094158411026,-1.1919850884112293E-8,0,3.8753800168933594E-8,-2.30990649276576E-15,-1.9376898308109958E-8,1]},{"mesh":11,"matrix":[0.099990956485271454,0,0,0,0,-1.1919850884112293E-8,-0.09999094158411026,0,0,0.09999094158411026,-1.1919850884112293E-8,0,3.8753800168933594E-8,-2.30990649276576E-15,-1.9376898308109958E-8,1]},{"mesh":12,"matrix":[0.099990956485271454,0,0,0,0,-1.1919850884112293E-8,-0.09999094158411026,0,0,0.09999094158411026,-1.1919850884112293E-8,0,3.8753800168933594E-8,-2.30990649276576E-15,-1.9376898308109958E-8,1]},{"mesh":13,"matrix":[0.099990956485271454,0,0,0,0,-1.1919850884112293E-8,-0.09999094158411026,0,0,0.09999094158411026,-1.1919850884112293E-8,0,3.8753800168933594E-8,-2.30990649276576E-15,-1.9376898308109958E-8,1]},{"mesh":14,"matrix":[0.099990956485271454,0,0,0,0,-1.1919850884112293E-8,-0.09999094158411026,0,0,0.09999094158411026,-1.1919850884112293E-8,0,3.8753800168933594E-8,-2.30990649276576E-15,-1.9376898308109958E-8,1]},{"mesh":15,"matrix":[0.099990956485271454,0,0,0,0,-1.1919850884112293E-8,-0.09999094158411026,0,0,0.09999094158411026,-1.1919850884112293E-8,0,3.8753800168933594E-8,-2.30990649276576E-15,-1.9376898308109958E-8,1]},{"mesh":16,"matrix":[0.099990956485271454,0,0,0,0,-1.1919850884112293E-8,-0.09999094158411026,0,0,0.09999094158411026,-1.1919850884112293E-8,0,3.8753800168933594E-8,-2.30990649276576E-15,-1.9376898308109958E-8,1]},{"mesh":17,"matrix":[0.099990956485271454,0,0,0,0,-1.1919850884112293E-8,-0.09999094158411026,0,0,0.09999094158411026,-1.1919850884112293E-8,0,3.8753800168933594E-8,-2.30990649276576E-15,-1.9376898308109958E-8,1]},{"mesh":18,"matrix":[0.099990956485271454,0,0,0,0,-1.1919850884112293E-8,-0.09999094158411026,0,0,0.09999094158411026,-1.1919850884112293E-8,0,3.8753800168933594E-8,-2.30990649276576E-15,-1.9376898308109958E-8,1]}],"meshes":[{"primitives":[{"attributes":{"POSITION":0,"TEXCOORD_0":1},"mode":4,"indices":2,"material":0}]},{"primitives":[{"attributes":{"POSITION":3},"mode":4,"indices":4,"material":1}]},{"primitives":[{"attributes":{"POSITION":5},"mode":4,"indices":6,"material":1}]},{"primitives":[{"attributes":{"POSITION":7},"mode":4,"indices":20,"material":1},{"attributes":{"POSITION":8,"TEXCOORD_0":14},"mode":4,"indices":21,"material":2},{"attributes":{"POSITION":9,"TEXCOORD_0":15},"mode":4,"indices":22,"material":3},{"attributes":{"POSITION":10,"TEXCOORD_0":16},"mode":4,"indices":23,"material":3},{"attributes":{"POSITION":11,"TEXCOORD_0":17},"mode":4,"indices":24,"material":3},{"attributes":{"POSITION":12,"TEXCOORD_0":18},"mode":4,"indices":25,"material":3},{"attributes":{"POSITION":13,"TEXCOORD_0":19},"mode":4,"indices":26,"material":3}]},{"primitives":[{"attributes":{"POSITION":27},"mode":4,"indices":28,"material":1}]},{"primitives":[{"attributes":{"POSITION":29},"mode":4,"indices":30,"material":1}]},{"primitives":[{"attributes":{"POSITION":31},"mode":4,"indices":32,"material":1}]},{"primitives":[{"attributes":{"POSITION":33},"mode":4,"indices":34,"material":1}]},{"primitives":[{"attributes":{"POSITION":35},"mode":4,"indices":36,"material":1}]},{"primitives":[{"attributes":{"POSITION":37},"mode":4,"indices":38,"material":1}]},{"primitives":[{"attributes":{"POSITION":39},"mode":4,"indices":40,"material":1}]},{"primitives":[{"attributes":{"POSITION":41},"mode":4,"indices":42,"material":1}]},{"primitives":[{"attributes":{"POSITION":43},"mode":4,"indices":44,"material":1}]},{"primitives":[{"attributes":{"POSITION":45},"mode":4,"indices":46,"material":1}]},{"primitives":[{"attributes":{"POSITION":47},"mode":4,"indices":48,"material":1}]},{"primitives":[{"attributes":{"POSITION":49},"mode":4,"indices":50,"material":1}]},{"primitives":[{"attributes":{"POSITION":51,"TEXCOORD_0":52},"mode":4,"indices":53,"material":4}]},{"primitives":[{"attributes":{"POSITION":54},"mode":4,"indices":55,"material":1}]},{"primitives":[{"attributes":{"POSITION":56},"mode":4,"indices":57,"material":1}]}],"materials":[{"pbrMetallicRoughness":{"baseColorFactor":[1,1,1,1],"metallicFactor":0,"roughnessFactor":1,"baseColorTexture":{"index":0,"texCoord":0}},"alphaMode":"OPAQUE"},{"pbrMetallicRoughness":{"baseColorFactor":[0.1332085132598877,0.1332085132598877,0.1332085132598877,1],"metallicFactor":0,"roughnessFactor":0},"alphaMode":"OPAQUE"},{"pbrMetallicRoughness":{"baseColorFactor":[1,1,1,1],"metallicFactor":0,"roughnessFactor":1,"baseColorTexture":{"index":1,"texCoord":0}},"alphaMode":"OPAQUE"},{"pbrMetallicRoughness":{"baseColorFactor":[1,1,1,1],"metallicFactor":0,"roughnessFactor":1,"baseColorTexture":{"index":2,"texCoord":0}},"alphaMode":"OPAQUE"},{"pbrMetallicRoughness":{"baseColorFactor":[1,1,1,1],"metallicFactor":0,"roughnessFactor":1,"baseColorTexture":{"index":3,"texCoord":0}},"alphaMode":"OPAQUE"}],"textures":[{"source":0,"sampler":0},{"source":1,"sampler":0},{"source":2,"sampler":0},{"source":3,"sampler":0}],"images":[{"uri":"vert02.jpg"},{"uri":"red-texture-1466358.jpg"},{"uri":"sol01.png"},{"uri":"fond-texture-pierre-ancienne-tonique-couleur-bleu-classique_107210-688.jpg"}],"samplers":[{"magFilter":9729,"wrapS":10497,"wrapT":10497}],"accessors":[{"bufferView":0,"byteOffset":0,"count":68,"componentType":5126,"type":"VEC3","min":[-1.1032106876373291,-2.0440897941589355,18.806711196899414],"max":[1.0608721971511841,0.513748049736023,22.222019195556641]},{"bufferView":1,"byteOffset":0,"count":68,"componentType":5126,"type":"VEC2"},{"bufferView":2,"byteOffset":0,"count":396,"componentType":5125,"type":"SCALAR"},{"bufferView":3,"byteOffset":0,"count":50,"componentType":5126,"type":"VEC3","min":[0.76005345582962036,-0.74974077939987183,19.7482852935791],"max":[1.0405200719833374,-0.40798133611679077,20.214441299438477]},{"bufferView":4,"byteOffset":0,"count":288,"componentType":5125,"type":"SCALAR"},{"bufferView":5,"byteOffset":0,"count":28,"componentType":5126,"type":"VEC3","min":[-1.5300143957138062,0.86282134056091309,11.966428756713867],"max":[1.5433118343353271,2.4733366966247559,13.72560977935791]},{"bufferView":6,"byteOffset":0,"count":156,"componentType":5125,"type":"SCALAR"},{"bufferView":7,"byteOffset":0,"count":4,"componentType":5126,"type":"VEC3","min":[-0.059596702456474304,-0.45248010754585266,18.229682922363281],"max":[0.0801868811249733,-0.40745684504508972,18.258338928222656]},{"bufferView":7,"byteOffset":48,"count":508,"componentType":5126,"type":"VEC3","min":[-6.9265041351318359,-1.5226523876190186,0.014099769294261932],"max":[6.9265036582946777,1.8492224216461182,21.95433235168457]},{"bufferView":7,"byteOffset":6144,"count":16,"componentType":5126,"type":"VEC3","min":[-1.7896023988723755,-2.1057572364807129,0.0021049275528639555],"max":[-0.710705041885376,0.4273589551448822,4.8724980354309082]},{"bufferView":7,"byteOffset":6336,"count":49,"componentType":5126,"type":"VEC3","min":[0.69354772567749023,-2.1057572364807129,1.2021288284813636E-6],"max":[2.3996365070343018,1.6470248699188232,5.0515050888061523]},{"bufferView":7,"byteOffset":6924,"count":49,"componentType":5126,"type":"VEC3","min":[-2.3824818134307861,-2.1057572364807129,1.2021288284813636E-6],"max":[-0.710705041885376,1.6357250213623047,4.9978456497192383]},{"bufferView":7,"byteOffset":7512,"count":9,"componentType":5126,"type":"VEC3","min":[-2.2740435600280762,-2.1057572364807129,1.2021288284813636E-6],"max":[-1.3418898582458496,1.0237241983413696,0.070008374750614166]},{"bufferView":7,"byteOffset":7620,"count":9,"componentType":5126,"type":"VEC3","min":[1.3418902158737183,-2.1057572364807129,1.2021288284813636E-6],"max":[2.3895459175109863,1.0669333934783936,0.070008374750614166]},{"bufferView":8,"byteOffset":0,"count":508,"componentType":5126,"type":"VEC2"},{"bufferView":8,"byteOffset":4064,"count":16,"componentType":5126,"type":"VEC2"},{"bufferView":8,"byteOffset":4192,"count":49,"componentType":5126,"type":"VEC2"},{"bufferView":8,"byteOffset":4584,"count":49,"componentType":5126,"type":"VEC2"},{"bufferView":8,"byteOffset":4976,"count":9,"componentType":5126,"type":"VEC2"},{"bufferView":8,"byteOffset":5048,"count":9,"componentType":5126,"type":"VEC2"},{"bufferView":9,"byteOffset":0,"count":6,"componentType":5125,"type":"SCALAR"},{"bufferView":9,"byteOffset":24,"count":2970,"componentType":5125,"type":"SCALAR"},{"bufferView":9,"byteOffset":11904,"count":36,"componentType":5125,"type":"SCALAR"},{"bufferView":9,"byteOffset":12048,"count":216,"componentType":5125,"type":"SCALAR"},{"bufferView":9,"byteOffset":12912,"count":216,"componentType":5125,"type":"SCALAR"},{"bufferView":9,"byteOffset":13776,"count":24,"componentType":5125,"type":"SCALAR"},{"bufferView":9,"byteOffset":13872,"count":24,"componentType":5125,"type":"SCALAR"},{"bufferView":10,"byteOffset":0,"count":16,"componentType":5126,"type":"VEC3","min":[0.95499283075332642,-2.0808265209198,15.759978294372559],"max":[1.8256378173828125,-1.4293774366378784,16.660737991333008]},{"bufferView":11,"byteOffset":0,"count":84,"componentType":5125,"type":"SCALAR"},{"bufferView":12,"byteOffset":0,"count":50,"componentType":5126,"type":"VEC3","min":[-0.32975208759307861,-1.5659580230712891,12.568788528442383],"max":[0.35691821575164795,-0.87928813695907593,13.255458831787109]},{"bufferView":13,"byteOffset":0,"count":288,"componentType":5125,"type":"SCALAR"},{"bufferView":14,"byteOffset":0,"count":58,"componentType":5126,"type":"VEC3","min":[-1.0639359951019287,-0.80404931306838989,19.68353271484375],"max":[-0.79315966367721558,-0.47150754928588867,20.146934509277344]},{"bufferView":15,"byteOffset":0,"count":336,"componentType":5125,"type":"SCALAR"},{"bufferView":16,"byteOffset":0,"count":38,"componentType":5126,"type":"VEC3","min":[0.81794315576553345,-0.59724360704422,20.962596893310547],"max":[1.0552365779876709,-0.15676964819431305,21.450422286987305]},{"bufferView":17,"byteOffset":0,"count":216,"componentType":5125,"type":"SCALAR"},{"bufferView":18,"byteOffset":0,"count":38,"componentType":5126,"type":"VEC3","min":[-1.0991835594177246,-0.59198737144470215,20.962596893310547],"max":[-0.890960693359375,-0.16207021474838257,21.450422286987305]},{"bufferView":19,"byteOffset":0,"count":216,"componentType":5125,"type":"SCALAR"},{"bufferView":20,"byteOffset":0,"count":36,"componentType":5126,"type":"VEC3","min":[-1.0493180751800537,-0.36477541923522949,20.677631378173828],"max":[0.97429537773132324,1.325743556022644,21.369499206542969]},{"bufferView":21,"byteOffset":0,"count":204,"componentType":5125,"type":"SCALAR"},{"bufferView":22,"byteOffset":0,"count":34,"componentType":5126,"type":"VEC3","min":[-1.0449159145355225,-0.62637418508529663,19.696645736694336],"max":[0.95199048519134521,1.274100661277771,20.205188751220703]},{"bufferView":23,"byteOffset":0,"count":192,"componentType":5125,"type":"SCALAR"},{"bufferView":24,"byteOffset":0,"count":28,"componentType":5126,"type":"VEC3","min":[0.47425535321235657,-1.247057318687439,13.451076507568359],"max":[1.6453605890274048,-0.077134318649768829,14.282627105712891]},{"bufferView":25,"byteOffset":0,"count":156,"componentType":5125,"type":"SCALAR"},{"bufferView":26,"byteOffset":0,"count":47,"componentType":5126,"type":"VEC3","min":[-5.9685845375061035,-0.54782640933990479,12.690587997436523],"max":[-4.9293613433837891,0.75003963708877563,13.539471626281738]},{"bufferView":27,"byteOffset":0,"count":270,"componentType":5125,"type":"SCALAR"},{"bufferView":28,"byteOffset":0,"count":43,"componentType":5126,"type":"VEC3","min":[4.912165641784668,-0.42198029160499573,12.80885124206543],"max":[5.880012035369873,0.76456576585769653,13.632445335388184]},{"bufferView":29,"byteOffset":0,"count":246,"componentType":5125,"type":"SCALAR"},{"bufferView":30,"byteOffset":0,"count":252,"componentType":5126,"type":"VEC3","min":[-2.6602108478546143,-2.473336935043335,12.321944236755371],"max":[0.287209153175354,1.8838976621627808,19.904464721679688]},{"bufferView":31,"byteOffset":0,"count":1500,"componentType":5125,"type":"SCALAR"},{"bufferView":32,"byteOffset":0,"count":28,"componentType":5126,"type":"VEC3","min":[0.81270909309387207,-1.2554721832275391,13.602679252624512],"max":[1.5337284803390503,-0.53524082899093628,14.114607810974121]},{"bufferView":33,"byteOffset":0,"count":156,"componentType":5125,"type":"SCALAR"},{"bufferView":34,"byteOffset":0,"count":82,"componentType":5126,"type":"VEC3","min":[-1.7475687265396118,-1.5017726421356201,12.583734512329102],"max":[1.7475488185882568,1.40058171749115,13.197293281555176]},{"bufferView":35,"byteOffset":0,"count":82,"componentType":5126,"type":"VEC2"},{"bufferView":36,"byteOffset":0,"count":480,"componentType":5125,"type":"SCALAR"},{"bufferView":37,"byteOffset":0,"count":68,"componentType":5126,"type":"VEC3","min":[1.0675793886184692,0.025355169549584389,17.631149291992188],"max":[2.574535608291626,0.47134402394294739,18.605140686035156]},{"bufferView":38,"byteOffset":0,"count":396,"componentType":5125,"type":"SCALAR"},{"bufferView":39,"byteOffset":0,"count":140,"componentType":5126,"type":"VEC3","min":[0.63998717069625854,-1.6720778942108154,12.321944236755371],"max":[1.9847300052642822,1.8838576078414917,18.539318084716797]},{"bufferView":40,"byteOffset":0,"count":828,"componentType":5125,"type":"SCALAR"}],"bufferViews":[{"buffer":0,"byteOffset":0,"byteLength":816,"byteStride":12,"target":34962},{"buffer":0,"byteOffset":816,"byteLength":544,"byteStride":8,"target":34962},{"buffer":0,"byteOffset":1360,"byteLength":1584,"target":34963},{"buffer":0,"byteOffset":2944,"byteLength":600,"byteStride":12,"target":34962},{"buffer":0,"byteOffset":3544,"byteLength":1152,"target":34963},{"buffer":0,"byteOffset":4696,"byteLength":336,"byteStride":12,"target":34962},{"buffer":0,"byteOffset":5032,"byteLength":624,"target":34963},{"buffer":0,"byteOffset":5656,"byteLength":7728,"byteStride":12,"target":34962},{"buffer":0,"byteOffset":13384,"byteLength":5120,"byteStride":8,"target":34962},{"buffer":0,"byteOffset":18504,"byteLength":13968,"target":34963},{"buffer":0,"byteOffset":32472,"byteLength":192,"byteStride":12,"target":34962},{"buffer":0,"byteOffset":32664,"byteLength":336,"target":34963},{"buffer":0,"byteOffset":33000,"byteLength":600,"byteStride":12,"target":34962},{"buffer":0,"byteOffset":33600,"byteLength":1152,"target":34963},{"buffer":0,"byteOffset":34752,"byteLength":696,"byteStride":12,"target":34962},{"buffer":0,"byteOffset":35448,"byteLength":1344,"target":34963},{"buffer":0,"byteOffset":36792,"byteLength":456,"byteStride":12,"target":34962},{"buffer":0,"byteOffset":37248,"byteLength":864,"target":34963},{"buffer":0,"byteOffset":38112,"byteLength":456,"byteStride":12,"target":34962},{"buffer":0,"byteOffset":38568,"byteLength":864,"target":34963},{"buffer":0,"byteOffset":39432,"byteLength":432,"byteStride":12,"target":34962},{"buffer":0,"byteOffset":39864,"byteLength":816,"target":34963},{"buffer":0,"byteOffset":40680,"byteLength":408,"byteStride":12,"target":34962},{"buffer":0,"byteOffset":41088,"byteLength":768,"target":34963},{"buffer":0,"byteOffset":41856,"byteLength":336,"byteStride":12,"target":34962},{"buffer":0,"byteOffset":42192,"byteLength":624,"target":34963},{"buffer":0,"byteOffset":42816,"byteLength":564,"byteStride":12,"target":34962},{"buffer":0,"byteOffset":43380,"byteLength":1080,"target":34963},{"buffer":0,"byteOffset":44460,"byteLength":516,"byteStride":12,"target":34962},{"buffer":0,"byteOffset":44976,"byteLength":984,"target":34963},{"buffer":0,"byteOffset":45960,"byteLength":3024,"byteStride":12,"target":34962},{"buffer":0,"byteOffset":48984,"byteLength":6000,"target":34963},{"buffer":0,"byteOffset":54984,"byteLength":336,"byteStride":12,"target":34962},{"buffer":0,"byteOffset":55320,"byteLength":624,"target":34963},{"buffer":0,"byteOffset":55944,"byteLength":984,"byteStride":12,"target":34962},{"buffer":0,"byteOffset":56928,"byteLength":656,"byteStride":8,"target":34962},{"buffer":0,"byteOffset":57584,"byteLength":1920,"target":34963},{"buffer":0,"byteOffset":59504,"byteLength":816,"byteStride":12,"target":34962},{"buffer":0,"byteOffset":60320,"byteLength":1584,"target":34963},{"buffer":0,"byteOffset":61904,"byteLength":1680,"byteStride":12,"target":34962},{"buffer":0,"byteOffset":63584,"byteLength":3312,"target":34963}],"buffers":[{"byteLength":66896,"uri":"player03.bin"}]}